ISO-10303-21;
HEADER;
/* Generated by software containing ST-Developer
 * from STEP Tools, Inc. (www.steptools.com) 
 */
/* OPTION: using custom renumber hook */

FILE_DESCRIPTION(
/* description */ ('STEP AP242 Edition 2',
'CAx-IF Rec.Pracs.---Representation and Presentation of Product Manufa
cturing Information (PMI)---4.0---2014-10-13',
'CAx-IF Rec.Pracs.---3D Tessellated Geometry---0.4---2014-09-14','2;1',
'CAx-IF Rec.Pracs.---User Defined Attributes---1.5---2016-08-15'),
/* implementation_level */ '2;1');

FILE_NAME(
/* name */ 'P1MagMountRoundBase - Head',
/* time_stamp */ '2026-09-24T00:56:07Z',
/* author */ (''),
/* organization */ (''),
/* preprocessor_version */ 'ST-DEVELOPER v20',
/* originating_system */ 'ONSHAPE BY PTC INC, 1.221',
/* authorisation */ '  ');

FILE_SCHEMA (('AP242_MANAGED_MODEL_BASED_3D_ENGINEERING_MIM_LF { 1 0 10303 442 3 1 4 }'));
ENDSEC;

DATA;
#10=SHAPE_REPRESENTATION_RELATIONSHIP('','',#856,#11);
#11=ADVANCED_BREP_SHAPE_REPRESENTATION('',(#854),#1434);
#12=CONICAL_SURFACE('',#941,0.0108,0.785398163397452);
#13=CONICAL_SURFACE('',#942,0.0212,0.78539816339745);
#14=TOROIDAL_SURFACE('',#938,0.033,0.003);
#15=TOROIDAL_SURFACE('',#939,0.023,0.003);
#16=TOROIDAL_SURFACE('',#940,0.019,0.003);
#17=B_SPLINE_CURVE_WITH_KNOTS('',3,(#1248,#1249,#1250,#1251,#1252),
 .UNSPECIFIED.,.F.,.F.,(4,1,4),(0.,0.00258652509261702,0.00517305018523404),
 .UNSPECIFIED.);
#18=B_SPLINE_CURVE_WITH_KNOTS('',3,(#1253,#1254,#1255,#1256,#1257),
 .UNSPECIFIED.,.F.,.F.,(4,1,4),(0.,0.00242338186506146,0.00484676373012292),
 .UNSPECIFIED.);
#19=B_SPLINE_CURVE_WITH_KNOTS('',3,(#1262,#1263,#1264,#1265,#1266,#1267),
 .UNSPECIFIED.,.F.,.F.,(4,1,1,4),(0.,0.0025778447118281,0.00386676706774214,
0.00515568942365619),.UNSPECIFIED.);
#20=B_SPLINE_CURVE_WITH_KNOTS('',3,(#1274,#1275,#1276,#1277,#1278),
 .UNSPECIFIED.,.F.,.F.,(4,1,4),(0.,0.00242337499573407,0.00484674999146814),
 .UNSPECIFIED.);
#21=CIRCLE('',#862,0.036);
#22=CIRCLE('',#863,0.036);
#23=CIRCLE('',#865,0.033);
#24=CIRCLE('',#866,0.023);
#25=CIRCLE('',#868,0.0029);
#26=CIRCLE('',#869,0.0029);
#27=CIRCLE('',#870,0.01);
#28=CIRCLE('',#871,0.0029);
#29=CIRCLE('',#875,0.02);
#30=CIRCLE('',#876,0.02);
#31=CIRCLE('',#877,0.02);
#32=CIRCLE('',#879,0.022);
#33=CIRCLE('',#880,0.022);
#34=CIRCLE('',#882,0.0108);
#35=CIRCLE('',#883,0.0212);
#36=CIRCLE('',#884,0.0025);
#37=CIRCLE('',#885,0.0025);
#38=CIRCLE('',#886,0.0025);
#39=CIRCLE('',#890,0.0022);
#40=CIRCLE('',#891,0.0022);
#41=CIRCLE('',#892,0.0022);
#42=CIRCLE('',#893,0.0022);
#43=CIRCLE('',#895,0.0022);
#44=CIRCLE('',#896,0.0022);
#45=CIRCLE('',#897,0.0022);
#46=CIRCLE('',#898,0.0022);
#47=CIRCLE('',#907,0.01);
#48=CIRCLE('',#908,0.01);
#49=CIRCLE('',#909,0.01);
#50=CIRCLE('',#921,0.0025);
#51=CIRCLE('',#924,0.0025);
#52=CIRCLE('',#927,0.0025);
#53=CIRCLE('',#930,0.0029);
#54=CIRCLE('',#933,0.0029);
#55=CIRCLE('',#936,0.0029);
#56=CYLINDRICAL_SURFACE('',#861,0.036);
#57=CYLINDRICAL_SURFACE('',#874,0.02);
#58=CYLINDRICAL_SURFACE('',#878,0.022);
#59=CYLINDRICAL_SURFACE('',#906,0.01);
#60=CYLINDRICAL_SURFACE('',#916,0.0022);
#61=CYLINDRICAL_SURFACE('',#917,0.0022);
#62=CYLINDRICAL_SURFACE('',#918,0.0022);
#63=CYLINDRICAL_SURFACE('',#919,0.0022);
#64=CYLINDRICAL_SURFACE('',#920,0.0025);
#65=CYLINDRICAL_SURFACE('',#923,0.0025);
#66=CYLINDRICAL_SURFACE('',#926,0.0025);
#67=CYLINDRICAL_SURFACE('',#929,0.0029);
#68=CYLINDRICAL_SURFACE('',#932,0.0029);
#69=CYLINDRICAL_SURFACE('',#935,0.0029);
#70=ORIENTED_EDGE('',*,*,#280,.F.);
#71=ORIENTED_EDGE('',*,*,#281,.T.);
#72=ORIENTED_EDGE('',*,*,#282,.T.);
#73=ORIENTED_EDGE('',*,*,#283,.F.);
#74=ORIENTED_EDGE('',*,*,#284,.T.);
#75=ORIENTED_EDGE('',*,*,#285,.T.);
#76=ORIENTED_EDGE('',*,*,#283,.T.);
#77=ORIENTED_EDGE('',*,*,#286,.F.);
#78=ORIENTED_EDGE('',*,*,#287,.T.);
#79=ORIENTED_EDGE('',*,*,#288,.F.);
#80=ORIENTED_EDGE('',*,*,#289,.F.);
#81=ORIENTED_EDGE('',*,*,#290,.T.);
#82=ORIENTED_EDGE('',*,*,#291,.T.);
#83=ORIENTED_EDGE('',*,*,#292,.T.);
#84=ORIENTED_EDGE('',*,*,#293,.T.);
#85=ORIENTED_EDGE('',*,*,#281,.F.);
#86=ORIENTED_EDGE('',*,*,#294,.F.);
#87=ORIENTED_EDGE('',*,*,#295,.T.);
#88=ORIENTED_EDGE('',*,*,#296,.T.);
#89=ORIENTED_EDGE('',*,*,#297,.T.);
#90=ORIENTED_EDGE('',*,*,#298,.F.);
#91=ORIENTED_EDGE('',*,*,#299,.T.);
#92=ORIENTED_EDGE('',*,*,#300,.T.);
#93=ORIENTED_EDGE('',*,*,#301,.T.);
#94=ORIENTED_EDGE('',*,*,#302,.F.);
#95=ORIENTED_EDGE('',*,*,#303,.F.);
#96=ORIENTED_EDGE('',*,*,#304,.F.);
#97=ORIENTED_EDGE('',*,*,#305,.F.);
#98=ORIENTED_EDGE('',*,*,#297,.F.);
#99=ORIENTED_EDGE('',*,*,#306,.T.);
#100=ORIENTED_EDGE('',*,*,#307,.F.);
#101=ORIENTED_EDGE('',*,*,#286,.T.);
#102=ORIENTED_EDGE('',*,*,#282,.F.);
#103=ORIENTED_EDGE('',*,*,#293,.F.);
#104=ORIENTED_EDGE('',*,*,#308,.T.);
#105=ORIENTED_EDGE('',*,*,#309,.F.);
#106=ORIENTED_EDGE('',*,*,#310,.T.);
#107=ORIENTED_EDGE('',*,*,#311,.T.);
#108=ORIENTED_EDGE('',*,*,#300,.F.);
#109=ORIENTED_EDGE('',*,*,#312,.T.);
#110=ORIENTED_EDGE('',*,*,#294,.T.);
#111=ORIENTED_EDGE('',*,*,#309,.T.);
#112=ORIENTED_EDGE('',*,*,#313,.F.);
#113=ORIENTED_EDGE('',*,*,#314,.F.);
#114=ORIENTED_EDGE('',*,*,#298,.T.);
#115=ORIENTED_EDGE('',*,*,#315,.T.);
#116=ORIENTED_EDGE('',*,*,#316,.F.);
#117=ORIENTED_EDGE('',*,*,#317,.T.);
#118=ORIENTED_EDGE('',*,*,#318,.T.);
#119=ORIENTED_EDGE('',*,*,#306,.F.);
#120=ORIENTED_EDGE('',*,*,#296,.F.);
#121=ORIENTED_EDGE('',*,*,#319,.T.);
#122=ORIENTED_EDGE('',*,*,#320,.T.);
#123=ORIENTED_EDGE('',*,*,#316,.T.);
#124=ORIENTED_EDGE('',*,*,#321,.T.);
#125=ORIENTED_EDGE('',*,*,#310,.F.);
#126=ORIENTED_EDGE('',*,*,#322,.T.);
#127=ORIENTED_EDGE('',*,*,#323,.T.);
#128=ORIENTED_EDGE('',*,*,#324,.T.);
#129=ORIENTED_EDGE('',*,*,#325,.T.);
#130=ORIENTED_EDGE('',*,*,#326,.T.);
#131=ORIENTED_EDGE('',*,*,#327,.T.);
#132=ORIENTED_EDGE('',*,*,#328,.T.);
#133=ORIENTED_EDGE('',*,*,#329,.T.);
#134=ORIENTED_EDGE('',*,*,#290,.F.);
#135=ORIENTED_EDGE('',*,*,#330,.T.);
#136=ORIENTED_EDGE('',*,*,#331,.F.);
#137=ORIENTED_EDGE('',*,*,#332,.F.);
#138=ORIENTED_EDGE('',*,*,#333,.T.);
#139=ORIENTED_EDGE('',*,*,#334,.T.);
#140=ORIENTED_EDGE('',*,*,#335,.F.);
#141=ORIENTED_EDGE('',*,*,#336,.F.);
#142=ORIENTED_EDGE('',*,*,#337,.T.);
#143=ORIENTED_EDGE('',*,*,#338,.T.);
#144=ORIENTED_EDGE('',*,*,#339,.T.);
#145=ORIENTED_EDGE('',*,*,#340,.T.);
#146=ORIENTED_EDGE('',*,*,#285,.F.);
#147=ORIENTED_EDGE('',*,*,#341,.T.);
#148=ORIENTED_EDGE('',*,*,#333,.F.);
#149=ORIENTED_EDGE('',*,*,#342,.F.);
#150=ORIENTED_EDGE('',*,*,#343,.T.);
#151=ORIENTED_EDGE('',*,*,#330,.F.);
#152=ORIENTED_EDGE('',*,*,#289,.T.);
#153=ORIENTED_EDGE('',*,*,#280,.T.);
#154=ORIENTED_EDGE('',*,*,#344,.F.);
#155=ORIENTED_EDGE('',*,*,#345,.F.);
#156=ORIENTED_EDGE('',*,*,#346,.F.);
#157=ORIENTED_EDGE('',*,*,#347,.F.);
#158=ORIENTED_EDGE('',*,*,#348,.F.);
#159=ORIENTED_EDGE('',*,*,#288,.T.);
#160=ORIENTED_EDGE('',*,*,#349,.T.);
#161=ORIENTED_EDGE('',*,*,#350,.T.);
#162=ORIENTED_EDGE('',*,*,#351,.F.);
#163=ORIENTED_EDGE('',*,*,#291,.F.);
#164=ORIENTED_EDGE('',*,*,#332,.T.);
#165=ORIENTED_EDGE('',*,*,#352,.F.);
#166=ORIENTED_EDGE('',*,*,#353,.T.);
#167=ORIENTED_EDGE('',*,*,#335,.T.);
#168=ORIENTED_EDGE('',*,*,#353,.F.);
#169=ORIENTED_EDGE('',*,*,#354,.F.);
#170=ORIENTED_EDGE('',*,*,#342,.T.);
#171=ORIENTED_EDGE('',*,*,#336,.T.);
#172=ORIENTED_EDGE('',*,*,#352,.T.);
#173=ORIENTED_EDGE('',*,*,#331,.T.);
#174=ORIENTED_EDGE('',*,*,#343,.F.);
#175=ORIENTED_EDGE('',*,*,#354,.T.);
#176=ORIENTED_EDGE('',*,*,#284,.F.);
#177=ORIENTED_EDGE('',*,*,#348,.T.);
#178=ORIENTED_EDGE('',*,*,#334,.F.);
#179=ORIENTED_EDGE('',*,*,#341,.F.);
#180=ORIENTED_EDGE('',*,*,#349,.F.);
#181=ORIENTED_EDGE('',*,*,#287,.F.);
#182=ORIENTED_EDGE('',*,*,#307,.T.);
#183=ORIENTED_EDGE('',*,*,#318,.F.);
#184=ORIENTED_EDGE('',*,*,#355,.F.);
#185=ORIENTED_EDGE('',*,*,#356,.F.);
#186=ORIENTED_EDGE('',*,*,#292,.F.);
#187=ORIENTED_EDGE('',*,*,#351,.T.);
#188=ORIENTED_EDGE('',*,*,#357,.T.);
#189=ORIENTED_EDGE('',*,*,#358,.T.);
#190=ORIENTED_EDGE('',*,*,#313,.T.);
#191=ORIENTED_EDGE('',*,*,#308,.F.);
#192=ORIENTED_EDGE('',*,*,#359,.F.);
#193=ORIENTED_EDGE('',*,*,#360,.F.);
#194=ORIENTED_EDGE('',*,*,#361,.F.);
#195=ORIENTED_EDGE('',*,*,#362,.T.);
#196=ORIENTED_EDGE('',*,*,#322,.F.);
#197=ORIENTED_EDGE('',*,*,#314,.T.);
#198=ORIENTED_EDGE('',*,*,#358,.F.);
#199=ORIENTED_EDGE('',*,*,#363,.T.);
#200=ORIENTED_EDGE('',*,*,#355,.T.);
#201=ORIENTED_EDGE('',*,*,#317,.F.);
#202=ORIENTED_EDGE('',*,*,#357,.F.);
#203=ORIENTED_EDGE('',*,*,#350,.F.);
#204=ORIENTED_EDGE('',*,*,#356,.T.);
#205=ORIENTED_EDGE('',*,*,#363,.F.);
#206=ORIENTED_EDGE('',*,*,#364,.T.);
#207=ORIENTED_EDGE('',*,*,#365,.T.);
#208=ORIENTED_EDGE('',*,*,#366,.T.);
#209=ORIENTED_EDGE('',*,*,#367,.F.);
#210=ORIENTED_EDGE('',*,*,#368,.F.);
#211=ORIENTED_EDGE('',*,*,#304,.T.);
#212=ORIENTED_EDGE('',*,*,#369,.F.);
#213=ORIENTED_EDGE('',*,*,#370,.F.);
#214=ORIENTED_EDGE('',*,*,#365,.F.);
#215=ORIENTED_EDGE('',*,*,#371,.T.);
#216=ORIENTED_EDGE('',*,*,#372,.F.);
#217=ORIENTED_EDGE('',*,*,#362,.F.);
#218=ORIENTED_EDGE('',*,*,#360,.T.);
#219=ORIENTED_EDGE('',*,*,#373,.T.);
#220=ORIENTED_EDGE('',*,*,#374,.F.);
#221=ORIENTED_EDGE('',*,*,#367,.T.);
#222=ORIENTED_EDGE('',*,*,#375,.T.);
#223=ORIENTED_EDGE('',*,*,#376,.T.);
#224=ORIENTED_EDGE('',*,*,#368,.T.);
#225=ORIENTED_EDGE('',*,*,#374,.T.);
#226=ORIENTED_EDGE('',*,*,#377,.T.);
#227=ORIENTED_EDGE('',*,*,#371,.F.);
#228=ORIENTED_EDGE('',*,*,#370,.T.);
#229=ORIENTED_EDGE('',*,*,#378,.T.);
#230=ORIENTED_EDGE('',*,*,#375,.F.);
#231=ORIENTED_EDGE('',*,*,#366,.F.);
#232=ORIENTED_EDGE('',*,*,#359,.T.);
#233=ORIENTED_EDGE('',*,*,#372,.T.);
#234=ORIENTED_EDGE('',*,*,#377,.F.);
#235=ORIENTED_EDGE('',*,*,#373,.F.);
#236=ORIENTED_EDGE('',*,*,#378,.F.);
#237=ORIENTED_EDGE('',*,*,#369,.T.);
#238=ORIENTED_EDGE('',*,*,#361,.T.);
#239=ORIENTED_EDGE('',*,*,#376,.F.);
#240=ORIENTED_EDGE('',*,*,#340,.F.);
#241=ORIENTED_EDGE('',*,*,#347,.T.);
#242=ORIENTED_EDGE('',*,*,#339,.F.);
#243=ORIENTED_EDGE('',*,*,#346,.T.);
#244=ORIENTED_EDGE('',*,*,#338,.F.);
#245=ORIENTED_EDGE('',*,*,#345,.T.);
#246=ORIENTED_EDGE('',*,*,#337,.F.);
#247=ORIENTED_EDGE('',*,*,#344,.T.);
#248=ORIENTED_EDGE('',*,*,#329,.F.);
#249=ORIENTED_EDGE('',*,*,#379,.F.);
#250=ORIENTED_EDGE('',*,*,#379,.T.);
#251=ORIENTED_EDGE('',*,*,#328,.F.);
#252=ORIENTED_EDGE('',*,*,#380,.F.);
#253=ORIENTED_EDGE('',*,*,#380,.T.);
#254=ORIENTED_EDGE('',*,*,#327,.F.);
#255=ORIENTED_EDGE('',*,*,#381,.F.);
#256=ORIENTED_EDGE('',*,*,#381,.T.);
#257=ORIENTED_EDGE('',*,*,#382,.T.);
#258=ORIENTED_EDGE('',*,*,#305,.T.);
#259=ORIENTED_EDGE('',*,*,#382,.F.);
#260=ORIENTED_EDGE('',*,*,#383,.T.);
#261=ORIENTED_EDGE('',*,*,#303,.T.);
#262=ORIENTED_EDGE('',*,*,#383,.F.);
#263=ORIENTED_EDGE('',*,*,#384,.T.);
#264=ORIENTED_EDGE('',*,*,#302,.T.);
#265=ORIENTED_EDGE('',*,*,#384,.F.);
#266=ORIENTED_EDGE('',*,*,#319,.F.);
#267=ORIENTED_EDGE('',*,*,#295,.F.);
#268=ORIENTED_EDGE('',*,*,#312,.F.);
#269=ORIENTED_EDGE('',*,*,#299,.F.);
#270=ORIENTED_EDGE('',*,*,#311,.F.);
#271=ORIENTED_EDGE('',*,*,#321,.F.);
#272=ORIENTED_EDGE('',*,*,#315,.F.);
#273=ORIENTED_EDGE('',*,*,#301,.F.);
#274=ORIENTED_EDGE('',*,*,#320,.F.);
#275=ORIENTED_EDGE('',*,*,#324,.F.);
#276=ORIENTED_EDGE('',*,*,#364,.F.);
#277=ORIENTED_EDGE('',*,*,#325,.F.);
#278=ORIENTED_EDGE('',*,*,#323,.F.);
#279=ORIENTED_EDGE('',*,*,#326,.F.);
#280=EDGE_CURVE('',#385,#386,#464,.T.);
#281=EDGE_CURVE('',#385,#387,#465,.T.);
#282=EDGE_CURVE('',#387,#388,#466,.T.);
#283=EDGE_CURVE('',#386,#388,#467,.T.);
#284=EDGE_CURVE('',#389,#390,#468,.T.);
#285=EDGE_CURVE('',#390,#386,#469,.T.);
#286=EDGE_CURVE('',#391,#388,#470,.T.);
#287=EDGE_CURVE('',#391,#392,#471,.T.);
#288=EDGE_CURVE('',#389,#392,#472,.T.);
#289=EDGE_CURVE('',#393,#385,#473,.T.);
#290=EDGE_CURVE('',#393,#394,#474,.T.);
#291=EDGE_CURVE('',#394,#395,#475,.T.);
#292=EDGE_CURVE('',#395,#396,#476,.T.);
#293=EDGE_CURVE('',#396,#387,#477,.T.);
#294=EDGE_CURVE('',#397,#398,#478,.T.);
#295=EDGE_CURVE('',#397,#399,#21,.F.);
#296=EDGE_CURVE('',#399,#400,#479,.T.);
#297=EDGE_CURVE('',#400,#398,#22,.T.);
#298=EDGE_CURVE('',#401,#402,#480,.T.);
#299=EDGE_CURVE('',#401,#403,#23,.T.);
#300=EDGE_CURVE('',#403,#404,#481,.T.);
#301=EDGE_CURVE('',#404,#402,#24,.F.);
#302=EDGE_CURVE('',#405,#405,#25,.F.);
#303=EDGE_CURVE('',#406,#406,#26,.F.);
#304=EDGE_CURVE('',#407,#407,#27,.F.);
#305=EDGE_CURVE('',#408,#408,#28,.F.);
#306=EDGE_CURVE('',#400,#409,#482,.T.);
#307=EDGE_CURVE('',#391,#409,#483,.T.);
#308=EDGE_CURVE('',#396,#410,#484,.T.);
#309=EDGE_CURVE('',#398,#410,#485,.T.);
#310=EDGE_CURVE('',#411,#412,#486,.T.);
#311=EDGE_CURVE('',#412,#404,#17,.T.);
#312=EDGE_CURVE('',#403,#397,#18,.T.);
#313=EDGE_CURVE('',#413,#410,#487,.T.);
#314=EDGE_CURVE('',#411,#413,#488,.T.);
#315=EDGE_CURVE('',#402,#414,#19,.T.);
#316=EDGE_CURVE('',#415,#414,#489,.T.);
#317=EDGE_CURVE('',#415,#416,#490,.T.);
#318=EDGE_CURVE('',#416,#409,#491,.T.);
#319=EDGE_CURVE('',#399,#401,#20,.T.);
#320=EDGE_CURVE('',#417,#417,#29,.F.);
#321=EDGE_CURVE('',#414,#412,#30,.T.);
#322=EDGE_CURVE('',#411,#415,#31,.T.);
#323=EDGE_CURVE('',#418,#418,#32,.F.);
#324=EDGE_CURVE('',#419,#419,#33,.T.);
#325=EDGE_CURVE('',#420,#420,#34,.F.);
#326=EDGE_CURVE('',#421,#421,#35,.T.);
#327=EDGE_CURVE('',#422,#422,#36,.F.);
#328=EDGE_CURVE('',#423,#423,#37,.F.);
#329=EDGE_CURVE('',#424,#424,#38,.F.);
#330=EDGE_CURVE('',#393,#425,#492,.T.);
#331=EDGE_CURVE('',#426,#425,#493,.T.);
#332=EDGE_CURVE('',#394,#426,#494,.T.);
#333=EDGE_CURVE('',#427,#428,#495,.T.);
#334=EDGE_CURVE('',#428,#429,#496,.T.);
#335=EDGE_CURVE('',#430,#429,#497,.T.);
#336=EDGE_CURVE('',#427,#430,#498,.T.);
#337=EDGE_CURVE('',#431,#431,#39,.F.);
#338=EDGE_CURVE('',#432,#432,#40,.F.);
#339=EDGE_CURVE('',#433,#433,#41,.F.);
#340=EDGE_CURVE('',#434,#434,#42,.F.);
#341=EDGE_CURVE('',#390,#428,#499,.T.);
#342=EDGE_CURVE('',#435,#427,#500,.T.);
#343=EDGE_CURVE('',#435,#425,#501,.T.);
#344=EDGE_CURVE('',#436,#436,#43,.F.);
#345=EDGE_CURVE('',#437,#437,#44,.F.);
#346=EDGE_CURVE('',#438,#438,#45,.F.);
#347=EDGE_CURVE('',#439,#439,#46,.F.);
#348=EDGE_CURVE('',#389,#429,#502,.T.);
#349=EDGE_CURVE('',#392,#440,#503,.T.);
#350=EDGE_CURVE('',#440,#441,#504,.T.);
#351=EDGE_CURVE('',#395,#441,#505,.T.);
#352=EDGE_CURVE('',#442,#426,#506,.T.);
#353=EDGE_CURVE('',#442,#430,#507,.T.);
#354=EDGE_CURVE('',#435,#442,#508,.T.);
#355=EDGE_CURVE('',#443,#416,#509,.T.);
#356=EDGE_CURVE('',#440,#443,#510,.T.);
#357=EDGE_CURVE('',#441,#444,#511,.T.);
#358=EDGE_CURVE('',#444,#413,#512,.T.);
#359=EDGE_CURVE('',#445,#446,#513,.T.);
#360=EDGE_CURVE('',#447,#445,#514,.T.);
#361=EDGE_CURVE('',#448,#447,#515,.T.);
#362=EDGE_CURVE('',#448,#446,#516,.T.);
#363=EDGE_CURVE('',#444,#443,#517,.T.);
#364=EDGE_CURVE('',#449,#449,#47,.T.);
#365=EDGE_CURVE('',#450,#451,#518,.T.);
#366=EDGE_CURVE('',#451,#452,#48,.T.);
#367=EDGE_CURVE('',#453,#452,#519,.T.);
#368=EDGE_CURVE('',#450,#453,#49,.T.);
#369=EDGE_CURVE('',#454,#448,#520,.T.);
#370=EDGE_CURVE('',#451,#454,#521,.T.);
#371=EDGE_CURVE('',#450,#455,#522,.T.);
#372=EDGE_CURVE('',#446,#455,#523,.T.);
#373=EDGE_CURVE('',#445,#456,#524,.T.);
#374=EDGE_CURVE('',#453,#456,#525,.T.);
#375=EDGE_CURVE('',#452,#457,#526,.T.);
#376=EDGE_CURVE('',#457,#447,#527,.T.);
#377=EDGE_CURVE('',#456,#455,#528,.T.);
#378=EDGE_CURVE('',#454,#457,#529,.T.);
#379=EDGE_CURVE('',#458,#458,#50,.T.);
#380=EDGE_CURVE('',#459,#459,#51,.T.);
#381=EDGE_CURVE('',#460,#460,#52,.T.);
#382=EDGE_CURVE('',#461,#461,#53,.T.);
#383=EDGE_CURVE('',#462,#462,#54,.T.);
#384=EDGE_CURVE('',#463,#463,#55,.T.);
#385=VERTEX_POINT('',#1184);
#386=VERTEX_POINT('',#1185);
#387=VERTEX_POINT('',#1187);
#388=VERTEX_POINT('',#1189);
#389=VERTEX_POINT('',#1193);
#390=VERTEX_POINT('',#1194);
#391=VERTEX_POINT('',#1197);
#392=VERTEX_POINT('',#1199);
#393=VERTEX_POINT('',#1203);
#394=VERTEX_POINT('',#1205);
#395=VERTEX_POINT('',#1207);
#396=VERTEX_POINT('',#1209);
#397=VERTEX_POINT('',#1213);
#398=VERTEX_POINT('',#1214);
#399=VERTEX_POINT('',#1216);
#400=VERTEX_POINT('',#1218);
#401=VERTEX_POINT('',#1222);
#402=VERTEX_POINT('',#1223);
#403=VERTEX_POINT('',#1225);
#404=VERTEX_POINT('',#1227);
#405=VERTEX_POINT('',#1231);
#406=VERTEX_POINT('',#1233);
#407=VERTEX_POINT('',#1235);
#408=VERTEX_POINT('',#1237);
#409=VERTEX_POINT('',#1239);
#410=VERTEX_POINT('',#1242);
#411=VERTEX_POINT('',#1246);
#412=VERTEX_POINT('',#1247);
#413=VERTEX_POINT('',#1259);
#414=VERTEX_POINT('',#1268);
#415=VERTEX_POINT('',#1270);
#416=VERTEX_POINT('',#1272);
#417=VERTEX_POINT('',#1281);
#418=VERTEX_POINT('',#1286);
#419=VERTEX_POINT('',#1288);
#420=VERTEX_POINT('',#1291);
#421=VERTEX_POINT('',#1293);
#422=VERTEX_POINT('',#1295);
#423=VERTEX_POINT('',#1297);
#424=VERTEX_POINT('',#1299);
#425=VERTEX_POINT('',#1302);
#426=VERTEX_POINT('',#1304);
#427=VERTEX_POINT('',#1308);
#428=VERTEX_POINT('',#1309);
#429=VERTEX_POINT('',#1311);
#430=VERTEX_POINT('',#1313);
#431=VERTEX_POINT('',#1317);
#432=VERTEX_POINT('',#1319);
#433=VERTEX_POINT('',#1321);
#434=VERTEX_POINT('',#1323);
#435=VERTEX_POINT('',#1326);
#436=VERTEX_POINT('',#1330);
#437=VERTEX_POINT('',#1332);
#438=VERTEX_POINT('',#1334);
#439=VERTEX_POINT('',#1336);
#440=VERTEX_POINT('',#1339);
#441=VERTEX_POINT('',#1341);
#442=VERTEX_POINT('',#1344);
#443=VERTEX_POINT('',#1352);
#444=VERTEX_POINT('',#1356);
#445=VERTEX_POINT('',#1360);
#446=VERTEX_POINT('',#1361);
#447=VERTEX_POINT('',#1363);
#448=VERTEX_POINT('',#1365);
#449=VERTEX_POINT('',#1371);
#450=VERTEX_POINT('',#1373);
#451=VERTEX_POINT('',#1374);
#452=VERTEX_POINT('',#1376);
#453=VERTEX_POINT('',#1378);
#454=VERTEX_POINT('',#1382);
#455=VERTEX_POINT('',#1385);
#456=VERTEX_POINT('',#1389);
#457=VERTEX_POINT('',#1392);
#458=VERTEX_POINT('',#1406);
#459=VERTEX_POINT('',#1410);
#460=VERTEX_POINT('',#1414);
#461=VERTEX_POINT('',#1418);
#462=VERTEX_POINT('',#1422);
#463=VERTEX_POINT('',#1426);
#464=LINE('',#1183,#530);
#465=LINE('',#1186,#531);
#466=LINE('',#1188,#532);
#467=LINE('',#1190,#533);
#468=LINE('',#1192,#534);
#469=LINE('',#1195,#535);
#470=LINE('',#1196,#536);
#471=LINE('',#1198,#537);
#472=LINE('',#1200,#538);
#473=LINE('',#1202,#539);
#474=LINE('',#1204,#540);
#475=LINE('',#1206,#541);
#476=LINE('',#1208,#542);
#477=LINE('',#1210,#543);
#478=LINE('',#1212,#544);
#479=LINE('',#1217,#545);
#480=LINE('',#1221,#546);
#481=LINE('',#1226,#547);
#482=LINE('',#1238,#548);
#483=LINE('',#1240,#549);
#484=LINE('',#1241,#550);
#485=LINE('',#1243,#551);
#486=LINE('',#1245,#552);
#487=LINE('',#1258,#553);
#488=LINE('',#1260,#554);
#489=LINE('',#1269,#555);
#490=LINE('',#1271,#556);
#491=LINE('',#1273,#557);
#492=LINE('',#1301,#558);
#493=LINE('',#1303,#559);
#494=LINE('',#1305,#560);
#495=LINE('',#1307,#561);
#496=LINE('',#1310,#562);
#497=LINE('',#1312,#563);
#498=LINE('',#1314,#564);
#499=LINE('',#1324,#565);
#500=LINE('',#1325,#566);
#501=LINE('',#1327,#567);
#502=LINE('',#1337,#568);
#503=LINE('',#1338,#569);
#504=LINE('',#1340,#570);
#505=LINE('',#1342,#571);
#506=LINE('',#1343,#572);
#507=LINE('',#1345,#573);
#508=LINE('',#1347,#574);
#509=LINE('',#1351,#575);
#510=LINE('',#1353,#576);
#511=LINE('',#1355,#577);
#512=LINE('',#1357,#578);
#513=LINE('',#1359,#579);
#514=LINE('',#1362,#580);
#515=LINE('',#1364,#581);
#516=LINE('',#1366,#582);
#517=LINE('',#1367,#583);
#518=LINE('',#1372,#584);
#519=LINE('',#1377,#585);
#520=LINE('',#1381,#586);
#521=LINE('',#1383,#587);
#522=LINE('',#1384,#588);
#523=LINE('',#1386,#589);
#524=LINE('',#1388,#590);
#525=LINE('',#1390,#591);
#526=LINE('',#1391,#592);
#527=LINE('',#1393,#593);
#528=LINE('',#1395,#594);
#529=LINE('',#1397,#595);
#530=VECTOR('',#947,1.);
#531=VECTOR('',#948,1.);
#532=VECTOR('',#949,1.);
#533=VECTOR('',#950,1.);
#534=VECTOR('',#953,1.);
#535=VECTOR('',#954,1.);
#536=VECTOR('',#955,1.);
#537=VECTOR('',#956,1.);
#538=VECTOR('',#957,1.);
#539=VECTOR('',#960,1.);
#540=VECTOR('',#961,1.);
#541=VECTOR('',#962,1.);
#542=VECTOR('',#963,1.);
#543=VECTOR('',#964,1.);
#544=VECTOR('',#967,1.);
#545=VECTOR('',#970,1.);
#546=VECTOR('',#975,1.);
#547=VECTOR('',#978,1.);
#548=VECTOR('',#991,1.);
#549=VECTOR('',#992,1.);
#550=VECTOR('',#993,1.);
#551=VECTOR('',#994,1.);
#552=VECTOR('',#997,1.);
#553=VECTOR('',#998,1.);
#554=VECTOR('',#999,1.);
#555=VECTOR('',#1002,1.);
#556=VECTOR('',#1003,1.);
#557=VECTOR('',#1004,1.);
#558=VECTOR('',#1033,1.);
#559=VECTOR('',#1034,1.);
#560=VECTOR('',#1035,1.);
#561=VECTOR('',#1038,1.);
#562=VECTOR('',#1039,1.);
#563=VECTOR('',#1040,1.);
#564=VECTOR('',#1041,1.);
#565=VECTOR('',#1052,1.);
#566=VECTOR('',#1053,1.);
#567=VECTOR('',#1054,1.);
#568=VECTOR('',#1065,1.);
#569=VECTOR('',#1066,1.);
#570=VECTOR('',#1067,1.);
#571=VECTOR('',#1068,1.);
#572=VECTOR('',#1069,1.);
#573=VECTOR('',#1070,1.);
#574=VECTOR('',#1073,1.);
#575=VECTOR('',#1080,1.);
#576=VECTOR('',#1081,1.);
#577=VECTOR('',#1084,1.);
#578=VECTOR('',#1085,1.);
#579=VECTOR('',#1088,1.);
#580=VECTOR('',#1089,1.);
#581=VECTOR('',#1090,1.);
#582=VECTOR('',#1091,1.);
#583=VECTOR('',#1092,1.);
#584=VECTOR('',#1099,1.);
#585=VECTOR('',#1102,1.);
#586=VECTOR('',#1107,1.);
#587=VECTOR('',#1108,1.);
#588=VECTOR('',#1109,1.);
#589=VECTOR('',#1110,1.);
#590=VECTOR('',#1113,1.);
#591=VECTOR('',#1114,1.);
#592=VECTOR('',#1115,1.);
#593=VECTOR('',#1116,1.);
#594=VECTOR('',#1119,1.);
#595=VECTOR('',#1122,1.);
#596=EDGE_LOOP('',(#70,#71,#72,#73));
#597=EDGE_LOOP('',(#74,#75,#76,#77,#78,#79));
#598=EDGE_LOOP('',(#80,#81,#82,#83,#84,#85));
#599=EDGE_LOOP('',(#86,#87,#88,#89));
#600=EDGE_LOOP('',(#90,#91,#92,#93));
#601=EDGE_LOOP('',(#94));
#602=EDGE_LOOP('',(#95));
#603=EDGE_LOOP('',(#96));
#604=EDGE_LOOP('',(#97));
#605=EDGE_LOOP('',(#98,#99,#100,#101,#102,#103,#104,#105));
#606=EDGE_LOOP('',(#106,#107,#108,#109,#110,#111,#112,#113));
#607=EDGE_LOOP('',(#114,#115,#116,#117,#118,#119,#120,#121));
#608=EDGE_LOOP('',(#122));
#609=EDGE_LOOP('',(#123,#124,#125,#126));
#610=EDGE_LOOP('',(#127));
#611=EDGE_LOOP('',(#128));
#612=EDGE_LOOP('',(#129));
#613=EDGE_LOOP('',(#130));
#614=EDGE_LOOP('',(#131));
#615=EDGE_LOOP('',(#132));
#616=EDGE_LOOP('',(#133));
#617=EDGE_LOOP('',(#134,#135,#136,#137));
#618=EDGE_LOOP('',(#138,#139,#140,#141));
#619=EDGE_LOOP('',(#142));
#620=EDGE_LOOP('',(#143));
#621=EDGE_LOOP('',(#144));
#622=EDGE_LOOP('',(#145));
#623=EDGE_LOOP('',(#146,#147,#148,#149,#150,#151,#152,#153));
#624=EDGE_LOOP('',(#154));
#625=EDGE_LOOP('',(#155));
#626=EDGE_LOOP('',(#156));
#627=EDGE_LOOP('',(#157));
#628=EDGE_LOOP('',(#158,#159,#160,#161,#162,#163,#164,#165,#166,#167));
#629=EDGE_LOOP('',(#168,#169,#170,#171));
#630=EDGE_LOOP('',(#172,#173,#174,#175));
#631=EDGE_LOOP('',(#176,#177,#178,#179));
#632=EDGE_LOOP('',(#180,#181,#182,#183,#184,#185));
#633=EDGE_LOOP('',(#186,#187,#188,#189,#190,#191));
#634=EDGE_LOOP('',(#192,#193,#194,#195));
#635=EDGE_LOOP('',(#196,#197,#198,#199,#200,#201));
#636=EDGE_LOOP('',(#202,#203,#204,#205));
#637=EDGE_LOOP('',(#206));
#638=EDGE_LOOP('',(#207,#208,#209,#210));
#639=EDGE_LOOP('',(#211));
#640=EDGE_LOOP('',(#212,#213,#214,#215,#216,#217));
#641=EDGE_LOOP('',(#218,#219,#220,#221,#222,#223));
#642=EDGE_LOOP('',(#224,#225,#226,#227));
#643=EDGE_LOOP('',(#228,#229,#230,#231));
#644=EDGE_LOOP('',(#232,#233,#234,#235));
#645=EDGE_LOOP('',(#236,#237,#238,#239));
#646=EDGE_LOOP('',(#240));
#647=EDGE_LOOP('',(#241));
#648=EDGE_LOOP('',(#242));
#649=EDGE_LOOP('',(#243));
#650=EDGE_LOOP('',(#244));
#651=EDGE_LOOP('',(#245));
#652=EDGE_LOOP('',(#246));
#653=EDGE_LOOP('',(#247));
#654=EDGE_LOOP('',(#248));
#655=EDGE_LOOP('',(#249));
#656=EDGE_LOOP('',(#250));
#657=EDGE_LOOP('',(#251));
#658=EDGE_LOOP('',(#252));
#659=EDGE_LOOP('',(#253));
#660=EDGE_LOOP('',(#254));
#661=EDGE_LOOP('',(#255));
#662=EDGE_LOOP('',(#256));
#663=EDGE_LOOP('',(#257));
#664=EDGE_LOOP('',(#258));
#665=EDGE_LOOP('',(#259));
#666=EDGE_LOOP('',(#260));
#667=EDGE_LOOP('',(#261));
#668=EDGE_LOOP('',(#262));
#669=EDGE_LOOP('',(#263));
#670=EDGE_LOOP('',(#264));
#671=EDGE_LOOP('',(#265));
#672=EDGE_LOOP('',(#266,#267,#268,#269));
#673=EDGE_LOOP('',(#270,#271,#272,#273));
#674=EDGE_LOOP('',(#274));
#675=EDGE_LOOP('',(#275));
#676=EDGE_LOOP('',(#276));
#677=EDGE_LOOP('',(#277));
#678=EDGE_LOOP('',(#278));
#679=EDGE_LOOP('',(#279));
#680=FACE_BOUND('',#596,.T.);
#681=FACE_BOUND('',#597,.T.);
#682=FACE_BOUND('',#598,.T.);
#683=FACE_BOUND('',#599,.T.);
#684=FACE_BOUND('',#600,.T.);
#685=FACE_BOUND('',#601,.T.);
#686=FACE_BOUND('',#602,.T.);
#687=FACE_BOUND('',#603,.T.);
#688=FACE_BOUND('',#604,.T.);
#689=FACE_BOUND('',#605,.T.);
#690=FACE_BOUND('',#606,.T.);
#691=FACE_BOUND('',#607,.T.);
#692=FACE_BOUND('',#608,.T.);
#693=FACE_BOUND('',#609,.T.);
#694=FACE_BOUND('',#610,.T.);
#695=FACE_BOUND('',#611,.T.);
#696=FACE_BOUND('',#612,.T.);
#697=FACE_BOUND('',#613,.T.);
#698=FACE_BOUND('',#614,.T.);
#699=FACE_BOUND('',#615,.T.);
#700=FACE_BOUND('',#616,.T.);
#701=FACE_BOUND('',#617,.T.);
#702=FACE_BOUND('',#618,.T.);
#703=FACE_BOUND('',#619,.T.);
#704=FACE_BOUND('',#620,.T.);
#705=FACE_BOUND('',#621,.T.);
#706=FACE_BOUND('',#622,.T.);
#707=FACE_BOUND('',#623,.T.);
#708=FACE_BOUND('',#624,.T.);
#709=FACE_BOUND('',#625,.T.);
#710=FACE_BOUND('',#626,.T.);
#711=FACE_BOUND('',#627,.T.);
#712=FACE_BOUND('',#628,.T.);
#713=FACE_BOUND('',#629,.T.);
#714=FACE_BOUND('',#630,.T.);
#715=FACE_BOUND('',#631,.T.);
#716=FACE_BOUND('',#632,.T.);
#717=FACE_BOUND('',#633,.T.);
#718=FACE_BOUND('',#634,.T.);
#719=FACE_BOUND('',#635,.T.);
#720=FACE_BOUND('',#636,.T.);
#721=FACE_BOUND('',#637,.T.);
#722=FACE_BOUND('',#638,.T.);
#723=FACE_BOUND('',#639,.T.);
#724=FACE_BOUND('',#640,.T.);
#725=FACE_BOUND('',#641,.T.);
#726=FACE_BOUND('',#642,.T.);
#727=FACE_BOUND('',#643,.T.);
#728=FACE_BOUND('',#644,.T.);
#729=FACE_BOUND('',#645,.T.);
#730=FACE_BOUND('',#646,.T.);
#731=FACE_BOUND('',#647,.T.);
#732=FACE_BOUND('',#648,.T.);
#733=FACE_BOUND('',#649,.T.);
#734=FACE_BOUND('',#650,.T.);
#735=FACE_BOUND('',#651,.T.);
#736=FACE_BOUND('',#652,.T.);
#737=FACE_BOUND('',#653,.T.);
#738=FACE_BOUND('',#654,.T.);
#739=FACE_BOUND('',#655,.T.);
#740=FACE_BOUND('',#656,.T.);
#741=FACE_BOUND('',#657,.T.);
#742=FACE_BOUND('',#658,.T.);
#743=FACE_BOUND('',#659,.T.);
#744=FACE_BOUND('',#660,.T.);
#745=FACE_BOUND('',#661,.T.);
#746=FACE_BOUND('',#662,.T.);
#747=FACE_BOUND('',#663,.T.);
#748=FACE_BOUND('',#664,.T.);
#749=FACE_BOUND('',#665,.T.);
#750=FACE_BOUND('',#666,.T.);
#751=FACE_BOUND('',#667,.T.);
#752=FACE_BOUND('',#668,.T.);
#753=FACE_BOUND('',#669,.T.);
#754=FACE_BOUND('',#670,.T.);
#755=FACE_BOUND('',#671,.T.);
#756=FACE_BOUND('',#672,.T.);
#757=FACE_BOUND('',#673,.T.);
#758=FACE_BOUND('',#674,.T.);
#759=FACE_BOUND('',#675,.T.);
#760=FACE_BOUND('',#676,.T.);
#761=FACE_BOUND('',#677,.T.);
#762=FACE_BOUND('',#678,.T.);
#763=FACE_BOUND('',#679,.T.);
#764=PLANE('',#858);
#765=PLANE('',#859);
#766=PLANE('',#860);
#767=PLANE('',#864);
#768=PLANE('',#867);
#769=PLANE('',#872);
#770=PLANE('',#873);
#771=PLANE('',#881);
#772=PLANE('',#887);
#773=PLANE('',#888);
#774=PLANE('',#889);
#775=PLANE('',#894);
#776=PLANE('',#899);
#777=PLANE('',#900);
#778=PLANE('',#901);
#779=PLANE('',#902);
#780=PLANE('',#903);
#781=PLANE('',#904);
#782=PLANE('',#905);
#783=PLANE('',#910);
#784=PLANE('',#911);
#785=PLANE('',#912);
#786=PLANE('',#913);
#787=PLANE('',#914);
#788=PLANE('',#915);
#789=PLANE('',#922);
#790=PLANE('',#925);
#791=PLANE('',#928);
#792=PLANE('',#931);
#793=PLANE('',#934);
#794=PLANE('',#937);
#795=ADVANCED_FACE('',(#680),#764,.F.);
#796=ADVANCED_FACE('',(#681),#765,.T.);
#797=ADVANCED_FACE('',(#682),#766,.F.);
#798=ADVANCED_FACE('',(#683),#56,.T.);
#799=ADVANCED_FACE('',(#684),#767,.T.);
#800=ADVANCED_FACE('',(#685,#686,#687,#688,#689),#768,.F.);
#801=ADVANCED_FACE('',(#690),#769,.F.);
#802=ADVANCED_FACE('',(#691),#770,.T.);
#803=ADVANCED_FACE('',(#692,#693),#57,.T.);
#804=ADVANCED_FACE('',(#694,#695),#58,.T.);
#805=ADVANCED_FACE('',(#696,#697,#698,#699,#700),#771,.T.);
#806=ADVANCED_FACE('',(#701),#772,.F.);
#807=ADVANCED_FACE('',(#702),#773,.T.);
#808=ADVANCED_FACE('',(#703,#704,#705,#706,#707),#774,.T.);
#809=ADVANCED_FACE('',(#708,#709,#710,#711,#712),#775,.F.);
#810=ADVANCED_FACE('',(#713),#776,.T.);
#811=ADVANCED_FACE('',(#714),#777,.F.);
#812=ADVANCED_FACE('',(#715),#778,.T.);
#813=ADVANCED_FACE('',(#716),#779,.T.);
#814=ADVANCED_FACE('',(#717),#780,.F.);
#815=ADVANCED_FACE('',(#718,#719),#781,.T.);
#816=ADVANCED_FACE('',(#720),#782,.T.);
#817=ADVANCED_FACE('',(#721,#722,#723),#59,.F.);
#818=ADVANCED_FACE('',(#724),#783,.T.);
#819=ADVANCED_FACE('',(#725),#784,.F.);
#820=ADVANCED_FACE('',(#726),#785,.F.);
#821=ADVANCED_FACE('',(#727),#786,.T.);
#822=ADVANCED_FACE('',(#728),#787,.F.);
#823=ADVANCED_FACE('',(#729),#788,.T.);
#824=ADVANCED_FACE('',(#730,#731),#60,.F.);
#825=ADVANCED_FACE('',(#732,#733),#61,.F.);
#826=ADVANCED_FACE('',(#734,#735),#62,.F.);
#827=ADVANCED_FACE('',(#736,#737),#63,.F.);
#828=ADVANCED_FACE('',(#738,#739),#64,.F.);
#829=ADVANCED_FACE('',(#740),#789,.T.);
#830=ADVANCED_FACE('',(#741,#742),#65,.F.);
#831=ADVANCED_FACE('',(#743),#790,.T.);
#832=ADVANCED_FACE('',(#744,#745),#66,.F.);
#833=ADVANCED_FACE('',(#746),#791,.T.);
#834=ADVANCED_FACE('',(#747,#748),#67,.F.);
#835=ADVANCED_FACE('',(#749),#792,.F.);
#836=ADVANCED_FACE('',(#750,#751),#68,.F.);
#837=ADVANCED_FACE('',(#752),#793,.F.);
#838=ADVANCED_FACE('',(#753,#754),#69,.F.);
#839=ADVANCED_FACE('',(#755),#794,.F.);
#840=ADVANCED_FACE('',(#756),#14,.T.);
#841=ADVANCED_FACE('',(#757),#15,.F.);
#842=ADVANCED_FACE('',(#758,#759),#16,.T.);
#843=ADVANCED_FACE('',(#760,#761),#12,.F.);
#844=ADVANCED_FACE('',(#762,#763),#13,.T.);
#845=CLOSED_SHELL('',(#795,#796,#797,#798,#799,#800,#801,#802,#803,#804,
#805,#806,#807,#808,#809,#810,#811,#812,#813,#814,#815,#816,#817,#818,#819,
#820,#821,#822,#823,#824,#825,#826,#827,#828,#829,#830,#831,#832,#833,#834,
#835,#836,#837,#838,#839,#840,#841,#842,#843,#844));
#846=STYLED_ITEM('',(#847),#854);
#847=PRESENTATION_STYLE_ASSIGNMENT((#848));
#848=SURFACE_STYLE_USAGE(.BOTH.,#849);
#849=SURFACE_SIDE_STYLE('',(#850));
#850=SURFACE_STYLE_FILL_AREA(#851);
#851=FILL_AREA_STYLE('',(#852));
#852=FILL_AREA_STYLE_COLOUR('',#853);
#853=COLOUR_RGB('',0.647058823529412,0.647058823529412,0.647058823529412);
#854=MANIFOLD_SOLID_BREP('Head',#845);
#855=SHAPE_DEFINITION_REPRESENTATION(#1439,#856);
#856=SHAPE_REPRESENTATION('Head',(#857),#1434);
#857=AXIS2_PLACEMENT_3D('',#1181,#943,#944);
#858=AXIS2_PLACEMENT_3D('',#1182,#945,#946);
#859=AXIS2_PLACEMENT_3D('',#1191,#951,#952);
#860=AXIS2_PLACEMENT_3D('',#1201,#958,#959);
#861=AXIS2_PLACEMENT_3D('',#1211,#965,#966);
#862=AXIS2_PLACEMENT_3D('',#1215,#968,#969);
#863=AXIS2_PLACEMENT_3D('',#1219,#971,#972);
#864=AXIS2_PLACEMENT_3D('',#1220,#973,#974);
#865=AXIS2_PLACEMENT_3D('',#1224,#976,#977);
#866=AXIS2_PLACEMENT_3D('',#1228,#979,#980);
#867=AXIS2_PLACEMENT_3D('',#1229,#981,#982);
#868=AXIS2_PLACEMENT_3D('',#1230,#983,#984);
#869=AXIS2_PLACEMENT_3D('',#1232,#985,#986);
#870=AXIS2_PLACEMENT_3D('',#1234,#987,#988);
#871=AXIS2_PLACEMENT_3D('',#1236,#989,#990);
#872=AXIS2_PLACEMENT_3D('',#1244,#995,#996);
#873=AXIS2_PLACEMENT_3D('',#1261,#1000,#1001);
#874=AXIS2_PLACEMENT_3D('',#1279,#1005,#1006);
#875=AXIS2_PLACEMENT_3D('',#1280,#1007,#1008);
#876=AXIS2_PLACEMENT_3D('',#1282,#1009,#1010);
#877=AXIS2_PLACEMENT_3D('',#1283,#1011,#1012);
#878=AXIS2_PLACEMENT_3D('',#1284,#1013,#1014);
#879=AXIS2_PLACEMENT_3D('',#1285,#1015,#1016);
#880=AXIS2_PLACEMENT_3D('',#1287,#1017,#1018);
#881=AXIS2_PLACEMENT_3D('',#1289,#1019,#1020);
#882=AXIS2_PLACEMENT_3D('',#1290,#1021,#1022);
#883=AXIS2_PLACEMENT_3D('',#1292,#1023,#1024);
#884=AXIS2_PLACEMENT_3D('',#1294,#1025,#1026);
#885=AXIS2_PLACEMENT_3D('',#1296,#1027,#1028);
#886=AXIS2_PLACEMENT_3D('',#1298,#1029,#1030);
#887=AXIS2_PLACEMENT_3D('',#1300,#1031,#1032);
#888=AXIS2_PLACEMENT_3D('',#1306,#1036,#1037);
#889=AXIS2_PLACEMENT_3D('',#1315,#1042,#1043);
#890=AXIS2_PLACEMENT_3D('',#1316,#1044,#1045);
#891=AXIS2_PLACEMENT_3D('',#1318,#1046,#1047);
#892=AXIS2_PLACEMENT_3D('',#1320,#1048,#1049);
#893=AXIS2_PLACEMENT_3D('',#1322,#1050,#1051);
#894=AXIS2_PLACEMENT_3D('',#1328,#1055,#1056);
#895=AXIS2_PLACEMENT_3D('',#1329,#1057,#1058);
#896=AXIS2_PLACEMENT_3D('',#1331,#1059,#1060);
#897=AXIS2_PLACEMENT_3D('',#1333,#1061,#1062);
#898=AXIS2_PLACEMENT_3D('',#1335,#1063,#1064);
#899=AXIS2_PLACEMENT_3D('',#1346,#1071,#1072);
#900=AXIS2_PLACEMENT_3D('',#1348,#1074,#1075);
#901=AXIS2_PLACEMENT_3D('',#1349,#1076,#1077);
#902=AXIS2_PLACEMENT_3D('',#1350,#1078,#1079);
#903=AXIS2_PLACEMENT_3D('',#1354,#1082,#1083);
#904=AXIS2_PLACEMENT_3D('',#1358,#1086,#1087);
#905=AXIS2_PLACEMENT_3D('',#1368,#1093,#1094);
#906=AXIS2_PLACEMENT_3D('',#1369,#1095,#1096);
#907=AXIS2_PLACEMENT_3D('',#1370,#1097,#1098);
#908=AXIS2_PLACEMENT_3D('',#1375,#1100,#1101);
#909=AXIS2_PLACEMENT_3D('',#1379,#1103,#1104);
#910=AXIS2_PLACEMENT_3D('',#1380,#1105,#1106);
#911=AXIS2_PLACEMENT_3D('',#1387,#1111,#1112);
#912=AXIS2_PLACEMENT_3D('',#1394,#1117,#1118);
#913=AXIS2_PLACEMENT_3D('',#1396,#1120,#1121);
#914=AXIS2_PLACEMENT_3D('',#1398,#1123,#1124);
#915=AXIS2_PLACEMENT_3D('',#1399,#1125,#1126);
#916=AXIS2_PLACEMENT_3D('',#1400,#1127,#1128);
#917=AXIS2_PLACEMENT_3D('',#1401,#1129,#1130);
#918=AXIS2_PLACEMENT_3D('',#1402,#1131,#1132);
#919=AXIS2_PLACEMENT_3D('',#1403,#1133,#1134);
#920=AXIS2_PLACEMENT_3D('',#1404,#1135,#1136);
#921=AXIS2_PLACEMENT_3D('',#1405,#1137,#1138);
#922=AXIS2_PLACEMENT_3D('',#1407,#1139,#1140);
#923=AXIS2_PLACEMENT_3D('',#1408,#1141,#1142);
#924=AXIS2_PLACEMENT_3D('',#1409,#1143,#1144);
#925=AXIS2_PLACEMENT_3D('',#1411,#1145,#1146);
#926=AXIS2_PLACEMENT_3D('',#1412,#1147,#1148);
#927=AXIS2_PLACEMENT_3D('',#1413,#1149,#1150);
#928=AXIS2_PLACEMENT_3D('',#1415,#1151,#1152);
#929=AXIS2_PLACEMENT_3D('',#1416,#1153,#1154);
#930=AXIS2_PLACEMENT_3D('',#1417,#1155,#1156);
#931=AXIS2_PLACEMENT_3D('',#1419,#1157,#1158);
#932=AXIS2_PLACEMENT_3D('',#1420,#1159,#1160);
#933=AXIS2_PLACEMENT_3D('',#1421,#1161,#1162);
#934=AXIS2_PLACEMENT_3D('',#1423,#1163,#1164);
#935=AXIS2_PLACEMENT_3D('',#1424,#1165,#1166);
#936=AXIS2_PLACEMENT_3D('',#1425,#1167,#1168);
#937=AXIS2_PLACEMENT_3D('',#1427,#1169,#1170);
#938=AXIS2_PLACEMENT_3D('',#1428,#1171,#1172);
#939=AXIS2_PLACEMENT_3D('',#1429,#1173,#1174);
#940=AXIS2_PLACEMENT_3D('',#1430,#1175,#1176);
#941=AXIS2_PLACEMENT_3D('',#1431,#1177,#1178);
#942=AXIS2_PLACEMENT_3D('',#1432,#1179,#1180);
#943=DIRECTION('',(0.,0.,1.));
#944=DIRECTION('',(1.,0.,0.));
#945=DIRECTION('',(-1.,0.,0.));
#946=DIRECTION('',(0.,0.,1.));
#947=DIRECTION('',(0.,1.,0.));
#948=DIRECTION('',(0.,0.,-1.));
#949=DIRECTION('',(0.,1.,0.));
#950=DIRECTION('',(0.,0.,-1.));
#951=DIRECTION('',(0.,1.,0.));
#952=DIRECTION('',(0.,0.,1.));
#953=DIRECTION('',(0.707106781186548,0.,0.707106781186548));
#954=DIRECTION('',(0.707106781186548,0.,-0.707106781186548));
#955=DIRECTION('',(1.,0.,0.));
#956=DIRECTION('',(0.,0.,1.));
#957=DIRECTION('',(-0.707106781186548,0.,0.707106781186548));
#958=DIRECTION('',(0.,1.,0.));
#959=DIRECTION('',(0.,0.,1.));
#960=DIRECTION('',(0.707106781186548,0.,-0.707106781186548));
#961=DIRECTION('',(-0.707106781186548,0.,-0.707106781186548));
#962=DIRECTION('',(-0.707106781186548,0.,0.707106781186548));
#963=DIRECTION('',(0.,0.,-1.));
#964=DIRECTION('',(1.,0.,0.));
#965=DIRECTION('',(0.,0.,-1.));
#966=DIRECTION('',(-1.,0.,0.));
#967=DIRECTION('',(0.,0.,-1.));
#968=DIRECTION('',(0.,0.,1.));
#969=DIRECTION('',(1.,0.,0.));
#970=DIRECTION('',(0.,0.,-1.));
#971=DIRECTION('',(0.,0.,1.));
#972=DIRECTION('',(1.,-6.12323399573677E-17,0.));
#973=DIRECTION('',(0.,0.,1.));
#974=DIRECTION('',(1.,0.,0.));
#975=DIRECTION('',(-1.,0.,0.));
#976=DIRECTION('',(0.,0.,1.));
#977=DIRECTION('',(1.,0.,0.));
#978=DIRECTION('',(-1.,0.,0.));
#979=DIRECTION('',(0.,0.,1.));
#980=DIRECTION('',(1.,0.,0.));
#981=DIRECTION('',(0.,0.,1.));
#982=DIRECTION('',(1.,0.,0.));
#983=DIRECTION('',(0.,0.,1.));
#984=DIRECTION('',(1.,0.,0.));
#985=DIRECTION('',(0.,0.,1.));
#986=DIRECTION('',(1.,0.,0.));
#987=DIRECTION('',(0.,0.,1.));
#988=DIRECTION('',(1.,0.,0.));
#989=DIRECTION('',(0.,0.,1.));
#990=DIRECTION('',(1.,0.,0.));
#991=DIRECTION('',(1.,0.,0.));
#992=DIRECTION('',(-0.972806214685367,-0.231620527306039,0.));
#993=DIRECTION('',(-0.972806214685367,0.231620527306039,0.));
#994=DIRECTION('',(1.,0.,0.));
#995=DIRECTION('',(0.,1.,0.));
#996=DIRECTION('',(0.,0.,1.));
#997=DIRECTION('',(0.,0.,-1.));
#998=DIRECTION('',(0.,0.,-1.));
#999=DIRECTION('',(1.,0.,0.));
#1000=DIRECTION('',(0.,1.,0.));
#1001=DIRECTION('',(0.,0.,1.));
#1002=DIRECTION('',(0.,0.,-1.));
#1003=DIRECTION('',(1.,0.,0.));
#1004=DIRECTION('',(0.,0.,-1.));
#1005=DIRECTION('',(0.,0.,-1.));
#1006=DIRECTION('',(-1.,0.,0.));
#1007=DIRECTION('',(0.,0.,1.));
#1008=DIRECTION('',(1.,0.,0.));
#1009=DIRECTION('',(0.,0.,1.));
#1010=DIRECTION('',(1.,0.,0.));
#1011=DIRECTION('',(0.,0.,1.));
#1012=DIRECTION('',(1.,0.,0.));
#1013=DIRECTION('',(0.,0.,-1.));
#1014=DIRECTION('',(-1.,0.,0.));
#1015=DIRECTION('',(0.,0.,1.));
#1016=DIRECTION('',(1.,0.,0.));
#1017=DIRECTION('',(0.,0.,1.));
#1018=DIRECTION('',(1.,0.,0.));
#1019=DIRECTION('',(0.,0.,1.));
#1020=DIRECTION('',(1.,0.,0.));
#1021=DIRECTION('',(0.,0.,1.));
#1022=DIRECTION('',(1.,0.,0.));
#1023=DIRECTION('',(0.,0.,1.));
#1024=DIRECTION('',(1.,0.,0.));
#1025=DIRECTION('',(0.,0.,1.));
#1026=DIRECTION('',(1.,0.,0.));
#1027=DIRECTION('',(0.,0.,1.));
#1028=DIRECTION('',(1.,0.,0.));
#1029=DIRECTION('',(0.,0.,1.));
#1030=DIRECTION('',(1.,0.,0.));
#1031=DIRECTION('',(-0.360817926620985,0.860012120645905,0.360817926620984));
#1032=DIRECTION('',(0.707106781186548,0.,0.707106781186548));
#1033=DIRECTION('',(-0.608120402411343,-0.510273605374737,0.608120402411343));
#1034=DIRECTION('',(0.707106781186548,0.,0.707106781186548));
#1035=DIRECTION('',(-0.608120402411343,-0.510273605374737,0.608120402411343));
#1036=DIRECTION('',(0.,1.,0.));
#1037=DIRECTION('',(0.707106781186548,0.,0.707106781186548));
#1038=DIRECTION('',(0.707106781186548,0.,-0.707106781186548));
#1039=DIRECTION('',(-0.707106781186548,0.,-0.707106781186548));
#1040=DIRECTION('',(0.707106781186548,0.,-0.707106781186548));
#1041=DIRECTION('',(-0.707106781186548,0.,-0.707106781186548));
#1042=DIRECTION('',(0.707106781186548,0.,0.707106781186548));
#1043=DIRECTION('',(0.707106781186548,0.,-0.707106781186548));
#1044=DIRECTION('',(0.707106781186548,0.,0.707106781186548));
#1045=DIRECTION('',(0.707106781186548,0.,-0.707106781186548));
#1046=DIRECTION('',(0.707106781186548,0.,0.707106781186548));
#1047=DIRECTION('',(0.707106781186548,0.,-0.707106781186548));
#1048=DIRECTION('',(0.707106781186548,0.,0.707106781186548));
#1049=DIRECTION('',(0.707106781186548,0.,-0.707106781186548));
#1050=DIRECTION('',(0.707106781186548,0.,0.707106781186548));
#1051=DIRECTION('',(0.707106781186548,0.,-0.707106781186548));
#1052=DIRECTION('',(-0.608120402411343,0.510273605374737,0.608120402411343));
#1053=DIRECTION('',(0.,1.,0.));
#1054=DIRECTION('',(0.707106781186548,0.,-0.707106781186548));
#1055=DIRECTION('',(0.707106781186548,0.,0.707106781186548));
#1056=DIRECTION('',(0.707106781186548,0.,-0.707106781186548));
#1057=DIRECTION('',(0.707106781186548,0.,0.707106781186548));
#1058=DIRECTION('',(0.707106781186548,0.,-0.707106781186548));
#1059=DIRECTION('',(0.707106781186548,0.,0.707106781186548));
#1060=DIRECTION('',(0.707106781186548,0.,-0.707106781186548));
#1061=DIRECTION('',(0.707106781186548,0.,0.707106781186548));
#1062=DIRECTION('',(0.707106781186548,0.,-0.707106781186548));
#1063=DIRECTION('',(0.707106781186548,0.,0.707106781186548));
#1064=DIRECTION('',(0.707106781186548,0.,-0.707106781186548));
#1065=DIRECTION('',(-0.608120402411343,0.510273605374737,0.608120402411343));
#1066=DIRECTION('',(-0.697293555179465,-0.16602227504273,0.697293555179465));
#1067=DIRECTION('',(0.,-1.,0.));
#1068=DIRECTION('',(-0.697293555179465,0.16602227504273,0.697293555179465));
#1069=DIRECTION('',(0.707106781186548,0.,-0.707106781186548));
#1070=DIRECTION('',(0.,1.,0.));
#1071=DIRECTION('',(-0.707106781186548,0.,0.707106781186548));
#1072=DIRECTION('',(0.707106781186548,0.,0.707106781186548));
#1073=DIRECTION('',(-0.707106781186548,0.,-0.707106781186548));
#1074=DIRECTION('',(0.,1.,0.));
#1075=DIRECTION('',(0.707106781186548,0.,0.707106781186548));
#1076=DIRECTION('',(0.360817926620985,0.860012120645905,-0.360817926620984));
#1077=DIRECTION('',(0.707106781186548,0.,0.707106781186548));
#1078=DIRECTION('',(-0.231620527306039,0.972806214685367,0.));
#1079=DIRECTION('',(0.,0.,1.));
#1080=DIRECTION('',(-0.972806214685367,-0.231620527306039,0.));
#1081=DIRECTION('',(-0.643116678475723,-0.153123018684696,-0.75030279155501));
#1082=DIRECTION('',(0.231620527306039,0.972806214685367,0.));
#1083=DIRECTION('',(0.,0.,1.));
#1084=DIRECTION('',(-0.643116678475723,0.153123018684696,-0.75030279155501));
#1085=DIRECTION('',(-0.972806214685367,0.231620527306039,0.));
#1086=DIRECTION('',(0.,0.,1.));
#1087=DIRECTION('',(1.,0.,0.));
#1088=DIRECTION('',(0.,-1.,0.));
#1089=DIRECTION('',(-1.,0.,0.));
#1090=DIRECTION('',(0.,1.,0.));
#1091=DIRECTION('',(-1.,0.,0.));
#1092=DIRECTION('',(0.,1.,0.));
#1093=DIRECTION('',(-0.759256602365297,0.,0.650791373455969));
#1094=DIRECTION('',(0.650791373455969,0.,0.759256602365297));
#1095=DIRECTION('',(0.,0.,-1.));
#1096=DIRECTION('',(-1.,0.,0.));
#1097=DIRECTION('',(0.,0.,1.));
#1098=DIRECTION('',(1.,0.,0.));
#1099=DIRECTION('',(0.,0.,-1.));
#1100=DIRECTION('',(0.,0.,1.));
#1101=DIRECTION('',(1.,0.,0.));
#1102=DIRECTION('',(0.,0.,-1.));
#1103=DIRECTION('',(0.,0.,1.));
#1104=DIRECTION('',(1.,0.,0.));
#1105=DIRECTION('',(0.,1.,0.));
#1106=DIRECTION('',(0.,0.,1.));
#1107=DIRECTION('',(0.780868809443031,0.,0.624695047554424));
#1108=DIRECTION('',(1.,0.,0.));
#1109=DIRECTION('',(1.,0.,0.));
#1110=DIRECTION('',(0.,0.,-1.));
#1111=DIRECTION('',(0.,1.,0.));
#1112=DIRECTION('',(0.,0.,1.));
#1113=DIRECTION('',(0.,0.,-1.));
#1114=DIRECTION('',(1.,0.,0.));
#1115=DIRECTION('',(1.,0.,0.));
#1116=DIRECTION('',(0.780868809443031,0.,0.624695047554424));
#1117=DIRECTION('',(0.,0.,1.));
#1118=DIRECTION('',(1.,0.,0.));
#1119=DIRECTION('',(0.,-1.,0.));
#1120=DIRECTION('',(0.,0.,1.));
#1121=DIRECTION('',(1.,0.,0.));
#1122=DIRECTION('',(0.,1.,0.));
#1123=DIRECTION('',(-1.,0.,0.));
#1124=DIRECTION('',(0.,0.,1.));
#1125=DIRECTION('',(-0.624695047554424,0.,0.78086880944303));
#1126=DIRECTION('',(0.78086880944303,0.,0.624695047554424));
#1127=DIRECTION('',(-0.707106781186548,0.,-0.707106781186548));
#1128=DIRECTION('',(-0.707106781186548,0.,0.707106781186548));
#1129=DIRECTION('',(-0.707106781186548,0.,-0.707106781186548));
#1130=DIRECTION('',(-0.707106781186548,0.,0.707106781186548));
#1131=DIRECTION('',(-0.707106781186548,0.,-0.707106781186548));
#1132=DIRECTION('',(-0.707106781186548,0.,0.707106781186548));
#1133=DIRECTION('',(-0.707106781186548,0.,-0.707106781186548));
#1134=DIRECTION('',(-0.707106781186548,0.,0.707106781186548));
#1135=DIRECTION('',(0.,0.,-1.));
#1136=DIRECTION('',(-1.,0.,0.));
#1137=DIRECTION('',(0.,0.,1.));
#1138=DIRECTION('',(1.,0.,0.));
#1139=DIRECTION('',(0.,0.,1.));
#1140=DIRECTION('',(1.,0.,0.));
#1141=DIRECTION('',(0.,0.,-1.));
#1142=DIRECTION('',(-1.,0.,0.));
#1143=DIRECTION('',(0.,0.,1.));
#1144=DIRECTION('',(1.,0.,0.));
#1145=DIRECTION('',(0.,0.,1.));
#1146=DIRECTION('',(1.,0.,0.));
#1147=DIRECTION('',(0.,0.,-1.));
#1148=DIRECTION('',(-1.,0.,0.));
#1149=DIRECTION('',(0.,0.,1.));
#1150=DIRECTION('',(1.,-6.12323399573677E-17,0.));
#1151=DIRECTION('',(0.,0.,1.));
#1152=DIRECTION('',(1.,0.,0.));
#1153=DIRECTION('',(0.,0.,-1.));
#1154=DIRECTION('',(-1.,0.,0.));
#1155=DIRECTION('',(0.,0.,1.));
#1156=DIRECTION('',(1.,-6.12323399573677E-17,0.));
#1157=DIRECTION('',(0.,0.,1.));
#1158=DIRECTION('',(1.,0.,0.));
#1159=DIRECTION('',(0.,0.,-1.));
#1160=DIRECTION('',(-1.,0.,0.));
#1161=DIRECTION('',(0.,0.,1.));
#1162=DIRECTION('',(1.,0.,0.));
#1163=DIRECTION('',(0.,0.,1.));
#1164=DIRECTION('',(1.,0.,0.));
#1165=DIRECTION('',(0.,0.,-1.));
#1166=DIRECTION('',(-1.,0.,0.));
#1167=DIRECTION('',(0.,0.,1.));
#1168=DIRECTION('',(1.,0.,0.));
#1169=DIRECTION('',(0.,0.,1.));
#1170=DIRECTION('',(1.,0.,0.));
#1171=DIRECTION('',(0.,0.,1.));
#1172=DIRECTION('',(1.,0.,0.));
#1173=DIRECTION('',(0.,0.,1.));
#1174=DIRECTION('',(1.,0.,0.));
#1175=DIRECTION('',(0.,0.,1.));
#1176=DIRECTION('',(1.,0.,0.));
#1177=DIRECTION('',(0.,0.,1.));
#1178=DIRECTION('',(1.,0.,0.));
#1179=DIRECTION('',(0.,0.,-1.));
#1180=DIRECTION('',(-1.,0.,0.));
#1181=CARTESIAN_POINT('',(0.,0.,0.));
#1182=CARTESIAN_POINT('',(0.131,0.,0.118));
#1183=CARTESIAN_POINT('',(0.131,0.,0.09));
#1184=CARTESIAN_POINT('',(0.131,-0.024,0.09));
#1185=CARTESIAN_POINT('',(0.131,0.024,0.09));
#1186=CARTESIAN_POINT('',(0.131,-0.024,0.118));
#1187=CARTESIAN_POINT('',(0.131,-0.024,0.085));
#1188=CARTESIAN_POINT('',(0.131,0.,0.085));
#1189=CARTESIAN_POINT('',(0.131,0.024,0.085));
#1190=CARTESIAN_POINT('',(0.131,0.024,0.118));
#1191=CARTESIAN_POINT('',(0.0928,0.024,0.118));
#1192=CARTESIAN_POINT('',(0.130900764062273,0.024,0.0985845173119651));
#1193=CARTESIAN_POINT('',(0.122415482688035,0.024,0.0900992359377265));
#1194=CARTESIAN_POINT('',(0.126658123375154,0.024,0.0943418766248458));
#1195=CARTESIAN_POINT('',(0.0979,0.024,0.1231));
#1196=CARTESIAN_POINT('',(0.0928,0.024,0.085));
#1197=CARTESIAN_POINT('',(0.105,0.024,0.085));
#1198=CARTESIAN_POINT('',(0.105,0.024,0.118));
#1199=CARTESIAN_POINT('',(0.105,0.024,0.107514718625761));
#1200=CARTESIAN_POINT('',(0.100757359312881,0.024,0.111757359312881));
#1201=CARTESIAN_POINT('',(0.0928,-0.024,0.118));
#1202=CARTESIAN_POINT('',(0.0979,-0.024,0.1231));
#1203=CARTESIAN_POINT('',(0.126658123375154,-0.024,0.0943418766248458));
#1204=CARTESIAN_POINT('',(0.130900764062273,-0.024,0.0985845173119651));
#1205=CARTESIAN_POINT('',(0.122415482688035,-0.024,0.0900992359377265));
#1206=CARTESIAN_POINT('',(0.100757359312881,-0.024,0.111757359312881));
#1207=CARTESIAN_POINT('',(0.105,-0.024,0.107514718625761));
#1208=CARTESIAN_POINT('',(0.105,-0.024,0.118));
#1209=CARTESIAN_POINT('',(0.105,-0.024,0.085));
#1210=CARTESIAN_POINT('',(0.0928,-0.024,0.085));
#1211=CARTESIAN_POINT('',(0.,2.20436423846524E-18,0.097));
#1212=CARTESIAN_POINT('',(0.0339411254969543,-0.012,0.097));
#1213=CARTESIAN_POINT('',(0.0339411254969543,-0.012,0.094));
#1214=CARTESIAN_POINT('',(0.0339411254969543,-0.012,0.085));
#1215=CARTESIAN_POINT('',(0.,2.20436423846524E-18,0.094));
#1216=CARTESIAN_POINT('',(0.0339411254969543,0.012,0.094));
#1217=CARTESIAN_POINT('',(0.0339411254969543,0.012,0.097));
#1218=CARTESIAN_POINT('',(0.0339411254969543,0.012,0.085));
#1219=CARTESIAN_POINT('',(0.,2.20436423846524E-18,0.085));
#1220=CARTESIAN_POINT('',(0.,0.,0.097));
#1221=CARTESIAN_POINT('',(0.,0.012,0.097));
#1222=CARTESIAN_POINT('',(0.0307408522978788,0.012,0.097));
#1223=CARTESIAN_POINT('',(0.0196214168703486,0.012,0.097));
#1224=CARTESIAN_POINT('',(0.,2.20436423846524E-18,0.097));
#1225=CARTESIAN_POINT('',(0.0307408522978788,-0.012,0.097));
#1226=CARTESIAN_POINT('',(0.,-0.012,0.097));
#1227=CARTESIAN_POINT('',(0.0196214168703486,-0.012,0.097));
#1228=CARTESIAN_POINT('',(0.,1.22464679914735E-18,0.097));
#1229=CARTESIAN_POINT('',(0.,0.,0.085));
#1230=CARTESIAN_POINT('',(-0.015,0.0259807621135331,0.085));
#1231=CARTESIAN_POINT('',(-0.0121,0.0259807621135331,0.085));
#1232=CARTESIAN_POINT('',(-0.015,-0.0259807621135331,0.085));
#1233=CARTESIAN_POINT('',(-0.0121,-0.0259807621135331,0.085));
#1234=CARTESIAN_POINT('',(0.,6.12323399573677E-19,0.085));
#1235=CARTESIAN_POINT('',(0.01,6.12323399573677E-19,0.085));
#1236=CARTESIAN_POINT('',(0.03,1.77573785876366E-19,0.085));
#1237=CARTESIAN_POINT('',(0.0329,1.77573785876366E-19,0.085));
#1238=CARTESIAN_POINT('',(0.0655,0.012,0.085));
#1239=CARTESIAN_POINT('',(0.0546,0.012,0.085));
#1240=CARTESIAN_POINT('',(0.0880467811158798,0.0199635193133047,0.085));
#1241=CARTESIAN_POINT('',(0.0880467811158798,-0.0199635193133047,0.085));
#1242=CARTESIAN_POINT('',(0.0546,-0.012,0.085));
#1243=CARTESIAN_POINT('',(0.0655,-0.012,0.085));
#1244=CARTESIAN_POINT('',(0.0655,-0.012,0.118));
#1245=CARTESIAN_POINT('',(0.016,-0.012,0.145));
#1246=CARTESIAN_POINT('',(0.016,-0.012,0.118));
#1247=CARTESIAN_POINT('',(0.016,-0.012,0.1));
#1248=CARTESIAN_POINT('',(0.016,-0.012,0.1));
#1249=CARTESIAN_POINT('',(0.016,-0.012,0.0991237423405316));
#1250=CARTESIAN_POINT('',(0.0170152051761023,-0.012,0.0975238666903536));
#1251=CARTESIAN_POINT('',(0.018748852072303,-0.012,0.097));
#1252=CARTESIAN_POINT('',(0.0196214168703486,-0.012,0.097));
#1253=CARTESIAN_POINT('',(0.0307408522978788,-0.012,0.097));
#1254=CARTESIAN_POINT('',(0.0315599413405657,-0.012,0.097));
#1255=CARTESIAN_POINT('',(0.0331847113876229,-0.012,0.0964062209204977));
#1256=CARTESIAN_POINT('',(0.0339411254969543,-0.012,0.094820801715161));
#1257=CARTESIAN_POINT('',(0.0339411254969543,-0.012,0.094));
#1258=CARTESIAN_POINT('',(0.0546,-0.012,0.118));
#1259=CARTESIAN_POINT('',(0.0546,-0.012,0.118));
#1260=CARTESIAN_POINT('',(0.0655,-0.012,0.118));
#1261=CARTESIAN_POINT('',(0.0655,0.012,0.118));
#1262=CARTESIAN_POINT('',(0.0196214168703486,0.012,0.097));
#1263=CARTESIAN_POINT('',(0.0187472919289266,0.012,0.097));
#1264=CARTESIAN_POINT('',(0.0174605517495363,0.012,0.0973991150297781));
#1265=CARTESIAN_POINT('',(0.0162470226969187,0.012,0.0987039228179132));
#1266=CARTESIAN_POINT('',(0.016,0.012,0.0995602933724758));
#1267=CARTESIAN_POINT('',(0.016,0.012,0.1));
#1268=CARTESIAN_POINT('',(0.016,0.012,0.1));
#1269=CARTESIAN_POINT('',(0.016,0.012,0.145));
#1270=CARTESIAN_POINT('',(0.016,0.012,0.118));
#1271=CARTESIAN_POINT('',(0.0655,0.012,0.118));
#1272=CARTESIAN_POINT('',(0.0546,0.012,0.118));
#1273=CARTESIAN_POINT('',(0.0546,0.012,0.118));
#1274=CARTESIAN_POINT('',(0.0339411254969543,0.012,0.094));
#1275=CARTESIAN_POINT('',(0.0339411254969543,0.012,0.0948197046458861));
#1276=CARTESIAN_POINT('',(0.0331887225908421,0.012,0.0964034817811741));
#1277=CARTESIAN_POINT('',(0.0315591612335329,0.012,0.097));
#1278=CARTESIAN_POINT('',(0.0307408522978788,0.012,0.097));
#1279=CARTESIAN_POINT('',(0.,1.22464679914735E-18,0.145));
#1280=CARTESIAN_POINT('',(0.,1.34711147906209E-18,0.135171572875254));
#1281=CARTESIAN_POINT('',(0.02,1.34711147906209E-18,0.135171572875254));
#1282=CARTESIAN_POINT('',(0.,1.22464679914735E-18,0.1));
#1283=CARTESIAN_POINT('',(0.,1.22464679914735E-18,0.118));
#1284=CARTESIAN_POINT('',(0.,1.34711147906209E-18,0.145));
#1285=CARTESIAN_POINT('',(0.,1.34711147906209E-18,0.1442));
#1286=CARTESIAN_POINT('',(0.022,1.34711147906209E-18,0.1442));
#1287=CARTESIAN_POINT('',(0.,1.34711147906209E-18,0.138));
#1288=CARTESIAN_POINT('',(0.022,1.34711147906209E-18,0.138));
#1289=CARTESIAN_POINT('',(0.,0.,0.145));
#1290=CARTESIAN_POINT('',(0.,6.12323399573677E-19,0.145));
#1291=CARTESIAN_POINT('',(0.0108,6.12323399573677E-19,0.145));
#1292=CARTESIAN_POINT('',(0.,1.34711147906209E-18,0.145));
#1293=CARTESIAN_POINT('',(0.0212,1.34711147906209E-18,0.145));
#1294=CARTESIAN_POINT('',(0.016,1.53080849893419E-19,0.145));
#1295=CARTESIAN_POINT('',(0.0185,1.53080849893419E-19,0.145));
#1296=CARTESIAN_POINT('',(-0.008,0.013856406460551,0.145));
#1297=CARTESIAN_POINT('',(-0.0055,0.013856406460551,0.145));
#1298=CARTESIAN_POINT('',(-0.008,-0.013856406460551,0.145));
#1299=CARTESIAN_POINT('',(-0.0055,-0.013856406460551,0.145));
#1300=CARTESIAN_POINT('',(0.111832706580766,-0.04,0.117652574793472));
#1301=CARTESIAN_POINT('',(0.118086710771513,-0.0311922691543837,0.102913289228487));
#1302=CARTESIAN_POINT('',(0.107590065893647,-0.04,0.113409934106353));
#1303=CARTESIAN_POINT('',(0.107590065893647,-0.04,0.113409934106353));
#1304=CARTESIAN_POINT('',(0.103347425206527,-0.04,0.109167293419234));
#1305=CARTESIAN_POINT('',(0.113844070084394,-0.0311922691543837,0.0986706485413678));
#1306=CARTESIAN_POINT('',(0.105,0.04,0.116));
#1307=CARTESIAN_POINT('',(0.105,0.04,0.116));
#1308=CARTESIAN_POINT('',(0.0809583694396574,0.04,0.140041630560343));
#1309=CARTESIAN_POINT('',(0.107590065893647,0.04,0.113409934106353));
#1310=CARTESIAN_POINT('',(0.107590065893647,0.04,0.113409934106353));
#1311=CARTESIAN_POINT('',(0.103347425206527,0.04,0.109167293419234));
#1312=CARTESIAN_POINT('',(0.100757359312881,0.04,0.111757359312881));
#1313=CARTESIAN_POINT('',(0.0767157287525381,0.04,0.135798989873223));
#1314=CARTESIAN_POINT('',(0.0809583694396574,0.04,0.140041630560343));
#1315=CARTESIAN_POINT('',(0.105,0.,0.116));
#1316=CARTESIAN_POINT('',(0.10712132034356,0.032,0.11387867965644));
#1317=CARTESIAN_POINT('',(0.10867695526217,0.032,0.11232304473783));
#1318=CARTESIAN_POINT('',(0.10712132034356,-0.032,0.11387867965644));
#1319=CARTESIAN_POINT('',(0.10867695526217,-0.032,0.11232304473783));
#1320=CARTESIAN_POINT('',(0.0887365440327094,0.032,0.132263455967291));
#1321=CARTESIAN_POINT('',(0.0902921789513198,0.032,0.13070782104868));
#1322=CARTESIAN_POINT('',(0.0887365440327094,-0.032,0.132263455967291));
#1323=CARTESIAN_POINT('',(0.0902921789513198,-0.032,0.13070782104868));
#1324=CARTESIAN_POINT('',(0.118086710771513,0.0311922691543837,0.102913289228487));
#1325=CARTESIAN_POINT('',(0.0809583694396574,0.,0.140041630560343));
#1326=CARTESIAN_POINT('',(0.0809583694396574,-0.04,0.140041630560343));
#1327=CARTESIAN_POINT('',(0.105,-0.04,0.116));
#1328=CARTESIAN_POINT('',(0.100757359312881,0.,0.111757359312881));
#1329=CARTESIAN_POINT('',(0.10287867965644,0.032,0.109636038969321));
#1330=CARTESIAN_POINT('',(0.104434314575051,0.032,0.108080404050711));
#1331=CARTESIAN_POINT('',(0.10287867965644,-0.032,0.109636038969321));
#1332=CARTESIAN_POINT('',(0.104434314575051,-0.032,0.108080404050711));
#1333=CARTESIAN_POINT('',(0.0844939033455901,0.032,0.128020815280171));
#1334=CARTESIAN_POINT('',(0.0860495382642005,0.032,0.126465180361561));
#1335=CARTESIAN_POINT('',(0.0844939033455901,-0.032,0.128020815280171));
#1336=CARTESIAN_POINT('',(0.0860495382642005,-0.032,0.126465180361561));
#1337=CARTESIAN_POINT('',(0.113844070084394,0.0311922691543837,0.0986706485413678));
#1338=CARTESIAN_POINT('',(0.0980959105997363,0.0223561691904134,0.114418808026025));
#1339=CARTESIAN_POINT('',(0.0805147186257615,0.0181701711013718,0.132));
#1340=CARTESIAN_POINT('',(0.0805147186257615,0.,0.132));
#1341=CARTESIAN_POINT('',(0.0805147186257614,-0.0181701711013718,0.132));
#1342=CARTESIAN_POINT('',(0.0980959105997363,-0.0223561691904134,0.114418808026025));
#1343=CARTESIAN_POINT('',(0.100757359312881,-0.04,0.111757359312881));
#1344=CARTESIAN_POINT('',(0.0767157287525381,-0.04,0.135798989873223));
#1345=CARTESIAN_POINT('',(0.0767157287525381,0.,0.135798989873223));
#1346=CARTESIAN_POINT('',(0.0809583694396574,0.,0.140041630560343));
#1347=CARTESIAN_POINT('',(0.0809583694396574,-0.04,0.140041630560343));
#1348=CARTESIAN_POINT('',(0.105,-0.04,0.116));
#1349=CARTESIAN_POINT('',(0.111832706580766,0.04,0.117652574793472));
#1350=CARTESIAN_POINT('',(0.0791147166100712,0.0178368372881122,0.148));
#1351=CARTESIAN_POINT('',(0.0880467811158798,0.0199635193133047,0.118));
#1352=CARTESIAN_POINT('',(0.0685147186257614,0.015313028244229,0.118));
#1353=CARTESIAN_POINT('',(0.267199487752917,0.0626189256554564,0.349798897315015));
#1354=CARTESIAN_POINT('',(0.0791147166100712,-0.0178368372881122,0.148));
#1355=CARTESIAN_POINT('',(0.267199487752917,-0.0626189256554564,0.349798897315015));
#1356=CARTESIAN_POINT('',(0.0685147186257614,-0.0153130282442289,0.118));
#1357=CARTESIAN_POINT('',(0.0880467811158798,-0.0199635193133047,0.118));
#1358=CARTESIAN_POINT('',(0.0655,0.,0.118));
#1359=CARTESIAN_POINT('',(0.021,0.,0.118));
#1360=CARTESIAN_POINT('',(0.021,0.008,0.118));
#1361=CARTESIAN_POINT('',(0.021,-0.008,0.118));
#1362=CARTESIAN_POINT('',(0.0655,0.008,0.118));
#1363=CARTESIAN_POINT('',(0.067,0.008,0.118));
#1364=CARTESIAN_POINT('',(0.067,0.,0.118));
#1365=CARTESIAN_POINT('',(0.067,-0.008,0.118));
#1366=CARTESIAN_POINT('',(0.0655,-0.008,0.118));
#1367=CARTESIAN_POINT('',(0.0685147186257614,0.,0.118));
#1368=CARTESIAN_POINT('',(0.273514001264392,0.,0.357165829745068));
#1369=CARTESIAN_POINT('',(0.,6.12323399573677E-19,0.146));
#1370=CARTESIAN_POINT('',(0.,6.12323399573677E-19,0.1442));
#1371=CARTESIAN_POINT('',(0.01,6.12323399573677E-19,0.1442));
#1372=CARTESIAN_POINT('',(0.006,-0.008,0.146));
#1373=CARTESIAN_POINT('',(0.006,-0.008,0.117));
#1374=CARTESIAN_POINT('',(0.006,-0.008,0.1052));
#1375=CARTESIAN_POINT('',(0.,6.12323399573677E-19,0.1052));
#1376=CARTESIAN_POINT('',(0.006,0.008,0.1052));
#1377=CARTESIAN_POINT('',(0.006,0.008,0.146));
#1378=CARTESIAN_POINT('',(0.006,0.008,0.117));
#1379=CARTESIAN_POINT('',(0.,6.12323399573677E-19,0.117));
#1380=CARTESIAN_POINT('',(0.0115,-0.008,0.117));
#1381=CARTESIAN_POINT('',(0.0539512195121951,-0.008,0.107560975609756));
#1382=CARTESIAN_POINT('',(0.051,-0.008,0.1052));
#1383=CARTESIAN_POINT('',(0.0115,-0.008,0.1052));
#1384=CARTESIAN_POINT('',(0.0115,-0.008,0.117));
#1385=CARTESIAN_POINT('',(0.021,-0.008,0.117));
#1386=CARTESIAN_POINT('',(0.021,-0.008,0.12));
#1387=CARTESIAN_POINT('',(0.0115,0.008,0.117));
#1388=CARTESIAN_POINT('',(0.021,0.008,0.12));
#1389=CARTESIAN_POINT('',(0.021,0.008,0.117));
#1390=CARTESIAN_POINT('',(0.0115,0.008,0.117));
#1391=CARTESIAN_POINT('',(0.0115,0.008,0.1052));
#1392=CARTESIAN_POINT('',(0.051,0.008,0.1052));
#1393=CARTESIAN_POINT('',(0.0539512195121951,0.008,0.107560975609756));
#1394=CARTESIAN_POINT('',(0.0115,0.,0.117));
#1395=CARTESIAN_POINT('',(0.021,0.,0.117));
#1396=CARTESIAN_POINT('',(0.0115,0.,0.1052));
#1397=CARTESIAN_POINT('',(0.051,0.,0.1052));
#1398=CARTESIAN_POINT('',(0.021,0.,0.12));
#1399=CARTESIAN_POINT('',(0.296973674974555,0.,0.301978939979643));
#1400=CARTESIAN_POINT('',(0.089443650813896,-0.032,0.132970562748477));
#1401=CARTESIAN_POINT('',(0.089443650813896,0.032,0.132970562748477));
#1402=CARTESIAN_POINT('',(0.107828427124746,-0.032,0.114585786437627));
#1403=CARTESIAN_POINT('',(0.107828427124746,0.032,0.114585786437627));
#1404=CARTESIAN_POINT('',(-0.008,-0.013856406460551,0.1451));
#1405=CARTESIAN_POINT('',(-0.008,-0.013856406460551,0.139));
#1406=CARTESIAN_POINT('',(-0.0055,-0.013856406460551,0.139));
#1407=CARTESIAN_POINT('',(-0.008,-0.013856406460551,0.139));
#1408=CARTESIAN_POINT('',(-0.008,0.013856406460551,0.1451));
#1409=CARTESIAN_POINT('',(-0.008,0.013856406460551,0.139));
#1410=CARTESIAN_POINT('',(-0.0055,0.013856406460551,0.139));
#1411=CARTESIAN_POINT('',(-0.008,0.013856406460551,0.139));
#1412=CARTESIAN_POINT('',(0.016,1.53080849893419E-19,0.1451));
#1413=CARTESIAN_POINT('',(0.016,1.53080849893419E-19,0.139));
#1414=CARTESIAN_POINT('',(0.0185,-2.40741243048404E-34,0.139));
#1415=CARTESIAN_POINT('',(0.016,0.,0.139));
#1416=CARTESIAN_POINT('',(0.03,1.77573785876366E-19,0.093));
#1417=CARTESIAN_POINT('',(0.03,1.77573785876366E-19,0.093));
#1418=CARTESIAN_POINT('',(0.0329,-2.88889491658085E-34,0.093));
#1419=CARTESIAN_POINT('',(0.03,0.,0.093));
#1420=CARTESIAN_POINT('',(-0.015,-0.0259807621135331,0.093));
#1421=CARTESIAN_POINT('',(-0.015,-0.0259807621135331,0.093));
#1422=CARTESIAN_POINT('',(-0.0121,-0.0259807621135331,0.093));
#1423=CARTESIAN_POINT('',(-0.015,-0.0259807621135331,0.093));
#1424=CARTESIAN_POINT('',(-0.015,0.0259807621135331,0.093));
#1425=CARTESIAN_POINT('',(-0.015,0.0259807621135331,0.093));
#1426=CARTESIAN_POINT('',(-0.0121,0.0259807621135331,0.093));
#1427=CARTESIAN_POINT('',(-0.015,0.0259807621135331,0.093));
#1428=CARTESIAN_POINT('',(0.,2.20436423846524E-18,0.094));
#1429=CARTESIAN_POINT('',(0.,1.22464679914735E-18,0.1));
#1430=CARTESIAN_POINT('',(0.,1.34711147906209E-18,0.138));
#1431=CARTESIAN_POINT('',(0.,6.12323399573677E-19,0.145));
#1432=CARTESIAN_POINT('',(0.,1.34711147906209E-18,0.145));
#1433=MECHANICAL_DESIGN_GEOMETRIC_PRESENTATION_REPRESENTATION('',(#846),
#1434);
#1434=(
GEOMETRIC_REPRESENTATION_CONTEXT(3)
GLOBAL_UNCERTAINTY_ASSIGNED_CONTEXT((#1435))
GLOBAL_UNIT_ASSIGNED_CONTEXT((#1438,#1437,#1436))
REPRESENTATION_CONTEXT('Head','TOP_LEVEL_ASSEMBLY_PART')
);
#1435=UNCERTAINTY_MEASURE_WITH_UNIT(LENGTH_MEASURE(2.E-5),#1438,
'DISTANCE_ACCURACY_VALUE','Maximum Tolerance applied to model');
#1436=(
NAMED_UNIT(*)
SI_UNIT($,.STERADIAN.)
SOLID_ANGLE_UNIT()
);
#1437=(
NAMED_UNIT(*)
PLANE_ANGLE_UNIT()
SI_UNIT($,.RADIAN.)
);
#1438=(
LENGTH_UNIT()
NAMED_UNIT(*)
SI_UNIT($,.METRE.)
);
#1439=PRODUCT_DEFINITION_SHAPE('','',#1440);
#1440=PRODUCT_DEFINITION('','',#1442,#1441);
#1441=PRODUCT_DEFINITION_CONTEXT('',#1448,'design');
#1442=PRODUCT_DEFINITION_FORMATION_WITH_SPECIFIED_SOURCE('','',#1444,
 .NOT_KNOWN.);
#1443=PRODUCT_RELATED_PRODUCT_CATEGORY('','',(#1444));
#1444=PRODUCT('Head','Head','Head',(#1446));
#1445=PRODUCT_CATEGORY('','');
#1446=PRODUCT_CONTEXT('',#1448,'mechanical');
#1447=APPLICATION_PROTOCOL_DEFINITION('international standard',
'ap242_managed_model_based_3d_engineering',2020,#1448);
#1448=APPLICATION_CONTEXT('managed model based 3d engineering');
ENDSEC;
END-ISO-10303-21;
