ISO-10303-21;
HEADER;
/* Generated by software containing ST-Developer
 * from STEP Tools, Inc. (www.steptools.com) 
 */
/* OPTION: using custom renumber hook */

FILE_DESCRIPTION(
/* description */ ('STEP AP242 Edition 2',
'CAx-IF Rec.Pracs.---Representation and Presentation of Product Manufa
cturing Information (PMI)---4.0---2014-10-13',
'CAx-IF Rec.Pracs.---3D Tessellated Geometry---0.4---2014-09-14','2;1',
'CAx-IF Rec.Pracs.---User Defined Attributes---1.5---2016-08-15'),
/* implementation_level */ '2;1');

FILE_NAME(
/* name */ 'P1MagMountRoundBase - Antenna cap',
/* time_stamp */ '2026-09-24T00:56:12Z',
/* author */ (''),
/* organization */ (''),
/* preprocessor_version */ 'ST-DEVELOPER v20',
/* originating_system */ 'ONSHAPE BY PTC INC, 1.221',
/* authorisation */ '  ');

FILE_SCHEMA (('AP242_MANAGED_MODEL_BASED_3D_ENGINEERING_MIM_LF { 1 0 10303 442 3 1 4 }'));
ENDSEC;

DATA;
#10=SHAPE_REPRESENTATION_RELATIONSHIP('','',#224,#11);
#11=ADVANCED_BREP_SHAPE_REPRESENTATION('',(#222),#377);
#12=CONICAL_SURFACE('',#253,0.0212,0.78539816339745);
#13=CYLINDRICAL_SURFACE('',#233,0.022);
#14=CYLINDRICAL_SURFACE('',#241,0.0133);
#15=CYLINDRICAL_SURFACE('',#243,0.0083);
#16=CYLINDRICAL_SURFACE('',#245,0.0083);
#17=CYLINDRICAL_SURFACE('',#250,0.0017);
#18=CYLINDRICAL_SURFACE('',#251,0.0017);
#19=CYLINDRICAL_SURFACE('',#252,0.0017);
#20=LINE('',#329,#28);
#21=LINE('',#333,#29);
#22=LINE('',#356,#30);
#23=LINE('',#360,#31);
#24=LINE('',#362,#32);
#25=LINE('',#366,#33);
#26=LINE('',#368,#34);
#27=LINE('',#370,#35);
#28=VECTOR('',#264,1.);
#29=VECTOR('',#267,1.);
#30=VECTOR('',#294,1.);
#31=VECTOR('',#297,1.);
#32=VECTOR('',#300,1.);
#33=VECTOR('',#303,1.);
#34=VECTOR('',#306,1.);
#35=VECTOR('',#309,1.);
#36=ORIENTED_EDGE('',*,*,#82,.T.);
#37=ORIENTED_EDGE('',*,*,#83,.T.);
#38=ORIENTED_EDGE('',*,*,#84,.T.);
#39=ORIENTED_EDGE('',*,*,#85,.T.);
#40=ORIENTED_EDGE('',*,*,#86,.T.);
#41=ORIENTED_EDGE('',*,*,#87,.F.);
#42=ORIENTED_EDGE('',*,*,#88,.T.);
#43=ORIENTED_EDGE('',*,*,#89,.T.);
#44=ORIENTED_EDGE('',*,*,#90,.T.);
#45=ORIENTED_EDGE('',*,*,#91,.T.);
#46=ORIENTED_EDGE('',*,*,#92,.F.);
#47=ORIENTED_EDGE('',*,*,#93,.F.);
#48=ORIENTED_EDGE('',*,*,#94,.F.);
#49=ORIENTED_EDGE('',*,*,#95,.F.);
#50=ORIENTED_EDGE('',*,*,#91,.F.);
#51=ORIENTED_EDGE('',*,*,#96,.T.);
#52=ORIENTED_EDGE('',*,*,#95,.T.);
#53=ORIENTED_EDGE('',*,*,#97,.T.);
#54=ORIENTED_EDGE('',*,*,#98,.F.);
#55=ORIENTED_EDGE('',*,*,#99,.F.);
#56=ORIENTED_EDGE('',*,*,#84,.F.);
#57=ORIENTED_EDGE('',*,*,#100,.F.);
#58=ORIENTED_EDGE('',*,*,#101,.F.);
#59=ORIENTED_EDGE('',*,*,#102,.T.);
#60=ORIENTED_EDGE('',*,*,#86,.F.);
#61=ORIENTED_EDGE('',*,*,#99,.T.);
#62=ORIENTED_EDGE('',*,*,#103,.F.);
#63=ORIENTED_EDGE('',*,*,#100,.T.);
#64=ORIENTED_EDGE('',*,*,#85,.F.);
#65=ORIENTED_EDGE('',*,*,#87,.T.);
#66=ORIENTED_EDGE('',*,*,#102,.F.);
#67=ORIENTED_EDGE('',*,*,#104,.T.);
#68=ORIENTED_EDGE('',*,*,#97,.F.);
#69=ORIENTED_EDGE('',*,*,#96,.F.);
#70=ORIENTED_EDGE('',*,*,#103,.T.);
#71=ORIENTED_EDGE('',*,*,#98,.T.);
#72=ORIENTED_EDGE('',*,*,#104,.F.);
#73=ORIENTED_EDGE('',*,*,#101,.T.);
#74=ORIENTED_EDGE('',*,*,#88,.F.);
#75=ORIENTED_EDGE('',*,*,#94,.T.);
#76=ORIENTED_EDGE('',*,*,#83,.F.);
#77=ORIENTED_EDGE('',*,*,#93,.T.);
#78=ORIENTED_EDGE('',*,*,#89,.F.);
#79=ORIENTED_EDGE('',*,*,#92,.T.);
#80=ORIENTED_EDGE('',*,*,#90,.F.);
#81=ORIENTED_EDGE('',*,*,#82,.F.);
#82=EDGE_CURVE('',#105,#105,#124,.T.);
#83=EDGE_CURVE('',#106,#106,#125,.F.);
#84=EDGE_CURVE('',#107,#108,#126,.F.);
#85=EDGE_CURVE('',#108,#109,#20,.T.);
#86=EDGE_CURVE('',#109,#110,#127,.F.);
#87=EDGE_CURVE('',#107,#110,#21,.T.);
#88=EDGE_CURVE('',#111,#111,#128,.F.);
#89=EDGE_CURVE('',#112,#112,#129,.F.);
#90=EDGE_CURVE('',#113,#113,#130,.F.);
#91=EDGE_CURVE('',#114,#114,#131,.T.);
#92=EDGE_CURVE('',#115,#115,#132,.F.);
#93=EDGE_CURVE('',#116,#116,#133,.F.);
#94=EDGE_CURVE('',#117,#117,#134,.F.);
#95=EDGE_CURVE('',#118,#118,#135,.F.);
#96=EDGE_CURVE('',#119,#119,#136,.T.);
#97=EDGE_CURVE('',#107,#120,#22,.T.);
#98=EDGE_CURVE('',#121,#120,#137,.T.);
#99=EDGE_CURVE('',#108,#121,#23,.T.);
#100=EDGE_CURVE('',#122,#109,#24,.F.);
#101=EDGE_CURVE('',#123,#122,#138,.T.);
#102=EDGE_CURVE('',#123,#110,#25,.F.);
#103=EDGE_CURVE('',#122,#121,#26,.T.);
#104=EDGE_CURVE('',#123,#120,#27,.T.);
#105=VERTEX_POINT('',#323);
#106=VERTEX_POINT('',#325);
#107=VERTEX_POINT('',#327);
#108=VERTEX_POINT('',#328);
#109=VERTEX_POINT('',#330);
#110=VERTEX_POINT('',#332);
#111=VERTEX_POINT('',#335);
#112=VERTEX_POINT('',#337);
#113=VERTEX_POINT('',#340);
#114=VERTEX_POINT('',#342);
#115=VERTEX_POINT('',#345);
#116=VERTEX_POINT('',#347);
#117=VERTEX_POINT('',#349);
#118=VERTEX_POINT('',#351);
#119=VERTEX_POINT('',#354);
#120=VERTEX_POINT('',#357);
#121=VERTEX_POINT('',#359);
#122=VERTEX_POINT('',#363);
#123=VERTEX_POINT('',#365);
#124=CIRCLE('',#227,0.0212);
#125=CIRCLE('',#228,0.0017);
#126=CIRCLE('',#229,0.0083);
#127=CIRCLE('',#230,0.0083);
#128=CIRCLE('',#231,0.0017);
#129=CIRCLE('',#232,0.0017);
#130=CIRCLE('',#234,0.022);
#131=CIRCLE('',#235,0.022);
#132=CIRCLE('',#237,0.0017);
#133=CIRCLE('',#238,0.0017);
#134=CIRCLE('',#239,0.0017);
#135=CIRCLE('',#240,0.0133);
#136=CIRCLE('',#242,0.0133);
#137=CIRCLE('',#244,0.0083);
#138=CIRCLE('',#246,0.0083);
#139=EDGE_LOOP('',(#36));
#140=EDGE_LOOP('',(#37));
#141=EDGE_LOOP('',(#38,#39,#40,#41));
#142=EDGE_LOOP('',(#42));
#143=EDGE_LOOP('',(#43));
#144=EDGE_LOOP('',(#44));
#145=EDGE_LOOP('',(#45));
#146=EDGE_LOOP('',(#46));
#147=EDGE_LOOP('',(#47));
#148=EDGE_LOOP('',(#48));
#149=EDGE_LOOP('',(#49));
#150=EDGE_LOOP('',(#50));
#151=EDGE_LOOP('',(#51));
#152=EDGE_LOOP('',(#52));
#153=EDGE_LOOP('',(#53,#54,#55,#56));
#154=EDGE_LOOP('',(#57,#58,#59,#60));
#155=EDGE_LOOP('',(#61,#62,#63,#64));
#156=EDGE_LOOP('',(#65,#66,#67,#68));
#157=EDGE_LOOP('',(#69));
#158=EDGE_LOOP('',(#70,#71,#72,#73));
#159=EDGE_LOOP('',(#74));
#160=EDGE_LOOP('',(#75));
#161=EDGE_LOOP('',(#76));
#162=EDGE_LOOP('',(#77));
#163=EDGE_LOOP('',(#78));
#164=EDGE_LOOP('',(#79));
#165=EDGE_LOOP('',(#80));
#166=EDGE_LOOP('',(#81));
#167=FACE_BOUND('',#139,.T.);
#168=FACE_BOUND('',#140,.T.);
#169=FACE_BOUND('',#141,.T.);
#170=FACE_BOUND('',#142,.T.);
#171=FACE_BOUND('',#143,.T.);
#172=FACE_BOUND('',#144,.T.);
#173=FACE_BOUND('',#145,.T.);
#174=FACE_BOUND('',#146,.T.);
#175=FACE_BOUND('',#147,.T.);
#176=FACE_BOUND('',#148,.T.);
#177=FACE_BOUND('',#149,.T.);
#178=FACE_BOUND('',#150,.T.);
#179=FACE_BOUND('',#151,.T.);
#180=FACE_BOUND('',#152,.T.);
#181=FACE_BOUND('',#153,.T.);
#182=FACE_BOUND('',#154,.T.);
#183=FACE_BOUND('',#155,.T.);
#184=FACE_BOUND('',#156,.T.);
#185=FACE_BOUND('',#157,.T.);
#186=FACE_BOUND('',#158,.T.);
#187=FACE_BOUND('',#159,.T.);
#188=FACE_BOUND('',#160,.T.);
#189=FACE_BOUND('',#161,.T.);
#190=FACE_BOUND('',#162,.T.);
#191=FACE_BOUND('',#163,.T.);
#192=FACE_BOUND('',#164,.T.);
#193=FACE_BOUND('',#165,.T.);
#194=FACE_BOUND('',#166,.T.);
#195=PLANE('',#226);
#196=PLANE('',#236);
#197=PLANE('',#247);
#198=PLANE('',#248);
#199=PLANE('',#249);
#200=ADVANCED_FACE('',(#167,#168,#169,#170,#171),#195,.T.);
#201=ADVANCED_FACE('',(#172,#173),#13,.T.);
#202=ADVANCED_FACE('',(#174,#175,#176,#177,#178),#196,.F.);
#203=ADVANCED_FACE('',(#179,#180),#14,.F.);
#204=ADVANCED_FACE('',(#181),#15,.F.);
#205=ADVANCED_FACE('',(#182),#16,.F.);
#206=ADVANCED_FACE('',(#183),#197,.T.);
#207=ADVANCED_FACE('',(#184),#198,.F.);
#208=ADVANCED_FACE('',(#185,#186),#199,.F.);
#209=ADVANCED_FACE('',(#187,#188),#17,.F.);
#210=ADVANCED_FACE('',(#189,#190),#18,.F.);
#211=ADVANCED_FACE('',(#191,#192),#19,.F.);
#212=ADVANCED_FACE('',(#193,#194),#12,.T.);
#213=CLOSED_SHELL('',(#200,#201,#202,#203,#204,#205,#206,#207,#208,#209,
#210,#211,#212));
#214=STYLED_ITEM('',(#215),#222);
#215=PRESENTATION_STYLE_ASSIGNMENT((#216));
#216=SURFACE_STYLE_USAGE(.BOTH.,#217);
#217=SURFACE_SIDE_STYLE('',(#218));
#218=SURFACE_STYLE_FILL_AREA(#219);
#219=FILL_AREA_STYLE('',(#220));
#220=FILL_AREA_STYLE_COLOUR('',#221);
#221=COLOUR_RGB('',0.647058823529412,0.647058823529412,0.647058823529412);
#222=MANIFOLD_SOLID_BREP('Antenna cap',#213);
#223=SHAPE_DEFINITION_REPRESENTATION(#382,#224);
#224=SHAPE_REPRESENTATION('Antenna cap',(#225),#377);
#225=AXIS2_PLACEMENT_3D('',#320,#254,#255);
#226=AXIS2_PLACEMENT_3D('',#321,#256,#257);
#227=AXIS2_PLACEMENT_3D('',#322,#258,#259);
#228=AXIS2_PLACEMENT_3D('',#324,#260,#261);
#229=AXIS2_PLACEMENT_3D('',#326,#262,#263);
#230=AXIS2_PLACEMENT_3D('',#331,#265,#266);
#231=AXIS2_PLACEMENT_3D('',#334,#268,#269);
#232=AXIS2_PLACEMENT_3D('',#336,#270,#271);
#233=AXIS2_PLACEMENT_3D('',#338,#272,#273);
#234=AXIS2_PLACEMENT_3D('',#339,#274,#275);
#235=AXIS2_PLACEMENT_3D('',#341,#276,#277);
#236=AXIS2_PLACEMENT_3D('',#343,#278,#279);
#237=AXIS2_PLACEMENT_3D('',#344,#280,#281);
#238=AXIS2_PLACEMENT_3D('',#346,#282,#283);
#239=AXIS2_PLACEMENT_3D('',#348,#284,#285);
#240=AXIS2_PLACEMENT_3D('',#350,#286,#287);
#241=AXIS2_PLACEMENT_3D('',#352,#288,#289);
#242=AXIS2_PLACEMENT_3D('',#353,#290,#291);
#243=AXIS2_PLACEMENT_3D('',#355,#292,#293);
#244=AXIS2_PLACEMENT_3D('',#358,#295,#296);
#245=AXIS2_PLACEMENT_3D('',#361,#298,#299);
#246=AXIS2_PLACEMENT_3D('',#364,#301,#302);
#247=AXIS2_PLACEMENT_3D('',#367,#304,#305);
#248=AXIS2_PLACEMENT_3D('',#369,#307,#308);
#249=AXIS2_PLACEMENT_3D('',#371,#310,#311);
#250=AXIS2_PLACEMENT_3D('',#372,#312,#313);
#251=AXIS2_PLACEMENT_3D('',#373,#314,#315);
#252=AXIS2_PLACEMENT_3D('',#374,#316,#317);
#253=AXIS2_PLACEMENT_3D('',#375,#318,#319);
#254=DIRECTION('',(0.,0.,1.));
#255=DIRECTION('',(1.,0.,0.));
#256=DIRECTION('',(0.,0.,1.));
#257=DIRECTION('',(1.,0.,0.));
#258=DIRECTION('',(0.,0.,1.));
#259=DIRECTION('',(1.,0.,0.));
#260=DIRECTION('',(0.,0.,1.));
#261=DIRECTION('',(1.,0.,0.));
#262=DIRECTION('',(0.,0.,1.));
#263=DIRECTION('',(1.,0.,0.));
#264=DIRECTION('',(-1.,0.,0.));
#265=DIRECTION('',(0.,0.,1.));
#266=DIRECTION('',(1.,0.,0.));
#267=DIRECTION('',(-1.,0.,0.));
#268=DIRECTION('',(0.,0.,1.));
#269=DIRECTION('',(1.,0.,0.));
#270=DIRECTION('',(0.,0.,1.));
#271=DIRECTION('',(1.,0.,0.));
#272=DIRECTION('',(0.,0.,-1.));
#273=DIRECTION('',(-1.,0.,0.));
#274=DIRECTION('',(0.,0.,1.));
#275=DIRECTION('',(1.,0.,0.));
#276=DIRECTION('',(0.,0.,1.));
#277=DIRECTION('',(1.,-6.12323399573677E-17,0.));
#278=DIRECTION('',(0.,0.,1.));
#279=DIRECTION('',(1.,0.,0.));
#280=DIRECTION('',(0.,0.,1.));
#281=DIRECTION('',(1.,0.,0.));
#282=DIRECTION('',(0.,0.,1.));
#283=DIRECTION('',(1.,0.,0.));
#284=DIRECTION('',(0.,0.,1.));
#285=DIRECTION('',(1.,0.,0.));
#286=DIRECTION('',(0.,0.,1.));
#287=DIRECTION('',(1.,0.,0.));
#288=DIRECTION('',(0.,0.,-1.));
#289=DIRECTION('',(-1.,0.,0.));
#290=DIRECTION('',(0.,0.,1.));
#291=DIRECTION('',(1.,-6.12323399573677E-17,0.));
#292=DIRECTION('',(0.,0.,-1.));
#293=DIRECTION('',(-1.,0.,0.));
#294=DIRECTION('',(0.,0.,-1.));
#295=DIRECTION('',(0.,0.,1.));
#296=DIRECTION('',(1.,0.,0.));
#297=DIRECTION('',(0.,0.,-1.));
#298=DIRECTION('',(0.,0.,-1.));
#299=DIRECTION('',(-1.,0.,0.));
#300=DIRECTION('',(0.,0.,-1.));
#301=DIRECTION('',(0.,0.,1.));
#302=DIRECTION('',(1.,0.,0.));
#303=DIRECTION('',(0.,0.,-1.));
#304=DIRECTION('',(0.,1.,0.));
#305=DIRECTION('',(0.,0.,1.));
#306=DIRECTION('',(1.,0.,0.));
#307=DIRECTION('',(0.,1.,0.));
#308=DIRECTION('',(0.,0.,1.));
#309=DIRECTION('',(1.,0.,0.));
#310=DIRECTION('',(0.,0.,1.));
#311=DIRECTION('',(1.,0.,0.));
#312=DIRECTION('',(0.,0.,-1.));
#313=DIRECTION('',(-1.,0.,0.));
#314=DIRECTION('',(0.,0.,-1.));
#315=DIRECTION('',(-1.,0.,0.));
#316=DIRECTION('',(0.,0.,-1.));
#317=DIRECTION('',(-1.,0.,0.));
#318=DIRECTION('',(0.,0.,-1.));
#319=DIRECTION('',(-1.,0.,0.));
#320=CARTESIAN_POINT('',(0.,0.,0.));
#321=CARTESIAN_POINT('',(0.,0.,0.154));
#322=CARTESIAN_POINT('',(0.,1.34711147906209E-18,0.154));
#323=CARTESIAN_POINT('',(0.0212,1.34711147906209E-18,0.154));
#324=CARTESIAN_POINT('',(-0.008,0.013856406460551,0.154));
#325=CARTESIAN_POINT('',(-0.0063,0.013856406460551,0.154));
#326=CARTESIAN_POINT('',(0.,5.08228421646152E-19,0.154));
#327=CARTESIAN_POINT('',(0.00445982062419556,0.007,0.154));
#328=CARTESIAN_POINT('',(0.00445982062419555,-0.007,0.154));
#329=CARTESIAN_POINT('',(0.,-0.007,0.154));
#330=CARTESIAN_POINT('',(-0.00445982062419555,-0.007,0.154));
#331=CARTESIAN_POINT('',(0.,5.08228421646152E-19,0.154));
#332=CARTESIAN_POINT('',(-0.00445982062419556,0.007,0.154));
#333=CARTESIAN_POINT('',(0.,0.007,0.154));
#334=CARTESIAN_POINT('',(-0.008,-0.013856406460551,0.154));
#335=CARTESIAN_POINT('',(-0.0063,-0.013856406460551,0.154));
#336=CARTESIAN_POINT('',(0.016,1.04094977927525E-19,0.154));
#337=CARTESIAN_POINT('',(0.0177,1.04094977927525E-19,0.154));
#338=CARTESIAN_POINT('',(0.,1.34711147906209E-18,0.154));
#339=CARTESIAN_POINT('',(0.,1.34711147906209E-18,0.1532));
#340=CARTESIAN_POINT('',(0.022,1.34711147906209E-18,0.1532));
#341=CARTESIAN_POINT('',(0.,1.34711147906209E-18,0.145));
#342=CARTESIAN_POINT('',(0.022,-1.34815096107107E-33,0.145));
#343=CARTESIAN_POINT('',(0.,0.,0.145));
#344=CARTESIAN_POINT('',(0.016,1.04094977927525E-19,0.145));
#345=CARTESIAN_POINT('',(0.0177,1.04094977927525E-19,0.145));
#346=CARTESIAN_POINT('',(-0.008,0.013856406460551,0.145));
#347=CARTESIAN_POINT('',(-0.0063,0.013856406460551,0.145));
#348=CARTESIAN_POINT('',(-0.008,-0.013856406460551,0.145));
#349=CARTESIAN_POINT('',(-0.0063,-0.013856406460551,0.145));
#350=CARTESIAN_POINT('',(0.,8.1439012143299E-19,0.145));
#351=CARTESIAN_POINT('',(0.0133,8.1439012143299E-19,0.145));
#352=CARTESIAN_POINT('',(0.,8.1439012143299E-19,0.148));
#353=CARTESIAN_POINT('',(0.,8.1439012143299E-19,0.148));
#354=CARTESIAN_POINT('',(0.0133,-3.85185988877447E-34,0.148));
#355=CARTESIAN_POINT('',(0.,5.08228421646152E-19,0.155));
#356=CARTESIAN_POINT('',(0.00445982062419556,0.007,0.155));
#357=CARTESIAN_POINT('',(0.00445982062419556,0.007,0.148));
#358=CARTESIAN_POINT('',(0.,5.08228421646152E-19,0.148));
#359=CARTESIAN_POINT('',(0.00445982062419555,-0.007,0.148));
#360=CARTESIAN_POINT('',(0.00445982062419555,-0.007,0.155));
#361=CARTESIAN_POINT('',(0.,5.08228421646152E-19,0.155));
#362=CARTESIAN_POINT('',(-0.00445982062419555,-0.007,0.155));
#363=CARTESIAN_POINT('',(-0.00445982062419555,-0.007,0.148));
#364=CARTESIAN_POINT('',(0.,5.08228421646152E-19,0.148));
#365=CARTESIAN_POINT('',(-0.00445982062419556,0.007,0.148));
#366=CARTESIAN_POINT('',(-0.00445982062419556,0.007,0.155));
#367=CARTESIAN_POINT('',(0.,-0.007,0.156));
#368=CARTESIAN_POINT('',(0.,-0.007,0.148));
#369=CARTESIAN_POINT('',(0.,0.007,0.156));
#370=CARTESIAN_POINT('',(0.,0.007,0.148));
#371=CARTESIAN_POINT('',(0.,0.,0.148));
#372=CARTESIAN_POINT('',(-0.008,-0.013856406460551,0.155));
#373=CARTESIAN_POINT('',(-0.008,0.013856406460551,0.155));
#374=CARTESIAN_POINT('',(0.016,1.04094977927525E-19,0.155));
#375=CARTESIAN_POINT('',(0.,1.34711147906209E-18,0.154));
#376=MECHANICAL_DESIGN_GEOMETRIC_PRESENTATION_REPRESENTATION('',(#214),
#377);
#377=(
GEOMETRIC_REPRESENTATION_CONTEXT(3)
GLOBAL_UNCERTAINTY_ASSIGNED_CONTEXT((#378))
GLOBAL_UNIT_ASSIGNED_CONTEXT((#381,#380,#379))
REPRESENTATION_CONTEXT('Antenna cap','TOP_LEVEL_ASSEMBLY_PART')
);
#378=UNCERTAINTY_MEASURE_WITH_UNIT(LENGTH_MEASURE(1.E-8),#381,
'DISTANCE_ACCURACY_VALUE','Maximum Tolerance applied to model');
#379=(
NAMED_UNIT(*)
SI_UNIT($,.STERADIAN.)
SOLID_ANGLE_UNIT()
);
#380=(
NAMED_UNIT(*)
PLANE_ANGLE_UNIT()
SI_UNIT($,.RADIAN.)
);
#381=(
LENGTH_UNIT()
NAMED_UNIT(*)
SI_UNIT($,.METRE.)
);
#382=PRODUCT_DEFINITION_SHAPE('','',#383);
#383=PRODUCT_DEFINITION('','',#385,#384);
#384=PRODUCT_DEFINITION_CONTEXT('',#391,'design');
#385=PRODUCT_DEFINITION_FORMATION_WITH_SPECIFIED_SOURCE('','',#387,
 .NOT_KNOWN.);
#386=PRODUCT_RELATED_PRODUCT_CATEGORY('','',(#387));
#387=PRODUCT('Antenna cap','Antenna cap','Antenna cap',(#389));
#388=PRODUCT_CATEGORY('','');
#389=PRODUCT_CONTEXT('',#391,'mechanical');
#390=APPLICATION_PROTOCOL_DEFINITION('international standard',
'ap242_managed_model_based_3d_engineering',2020,#391);
#391=APPLICATION_CONTEXT('managed model based 3d engineering');
ENDSEC;
END-ISO-10303-21;
