ISO-10303-21;
HEADER;
/* Generated by software containing ST-Developer
 * from STEP Tools, Inc. (www.steptools.com) 
 */
/* OPTION: using custom renumber hook */

FILE_DESCRIPTION(
/* description */ ('STEP AP242 Edition 2',
'CAx-IF Rec.Pracs.---Representation and Presentation of Product Manufa
cturing Information (PMI)---4.0---2014-10-13',
'CAx-IF Rec.Pracs.---3D Tessellated Geometry---0.4---2014-09-14','2;1',
'CAx-IF Rec.Pracs.---User Defined Attributes---1.5---2016-08-15'),
/* implementation_level */ '2;1');

FILE_NAME(
/* name */ 'P1MagMountRoundBase - Top plate',
/* time_stamp */ '2026-09-24T00:55:55Z',
/* author */ (''),
/* organization */ (''),
/* preprocessor_version */ 'ST-DEVELOPER v20',
/* originating_system */ 'ONSHAPE BY PTC INC, 1.221',
/* authorisation */ '  ');

FILE_SCHEMA (('AP242_MANAGED_MODEL_BASED_3D_ENGINEERING_MIM_LF { 1 0 10303 442 3 1 4 }'));
ENDSEC;

DATA;
#10=SHAPE_REPRESENTATION_RELATIONSHIP('','',#363,#11);
#11=ADVANCED_BREP_SHAPE_REPRESENTATION('',(#361),#625);
#12=CYLINDRICAL_SURFACE('',#387,0.0029);
#13=CYLINDRICAL_SURFACE('',#390,0.0055);
#14=CYLINDRICAL_SURFACE('',#392,0.00325);
#15=CYLINDRICAL_SURFACE('',#395,0.0029);
#16=CYLINDRICAL_SURFACE('',#398,0.0029);
#17=CYLINDRICAL_SURFACE('',#401,0.0029);
#18=CYLINDRICAL_SURFACE('',#404,0.0055);
#19=CYLINDRICAL_SURFACE('',#406,0.00325);
#20=CYLINDRICAL_SURFACE('',#409,0.005);
#21=CYLINDRICAL_SURFACE('',#410,0.005);
#22=CYLINDRICAL_SURFACE('',#411,0.005);
#23=CYLINDRICAL_SURFACE('',#412,0.005);
#24=CIRCLE('',#370,0.00325);
#25=CIRCLE('',#371,0.00325);
#26=CIRCLE('',#372,0.005);
#27=CIRCLE('',#373,0.005);
#28=CIRCLE('',#374,0.005);
#29=CIRCLE('',#375,0.005);
#30=CIRCLE('',#377,0.0055);
#31=CIRCLE('',#378,0.0029);
#32=CIRCLE('',#379,0.0029);
#33=CIRCLE('',#380,0.0029);
#34=CIRCLE('',#381,0.0055);
#35=CIRCLE('',#382,0.0029);
#36=CIRCLE('',#383,0.005);
#37=CIRCLE('',#384,0.005);
#38=CIRCLE('',#385,0.005);
#39=CIRCLE('',#386,0.005);
#40=CIRCLE('',#388,0.0029);
#41=CIRCLE('',#391,0.0055);
#42=CIRCLE('',#393,0.00325);
#43=CIRCLE('',#396,0.0029);
#44=CIRCLE('',#399,0.0029);
#45=CIRCLE('',#402,0.0029);
#46=CIRCLE('',#405,0.0055);
#47=CIRCLE('',#407,0.00325);
#48=ORIENTED_EDGE('',*,*,#128,.T.);
#49=ORIENTED_EDGE('',*,*,#129,.T.);
#50=ORIENTED_EDGE('',*,*,#130,.F.);
#51=ORIENTED_EDGE('',*,*,#131,.T.);
#52=ORIENTED_EDGE('',*,*,#132,.T.);
#53=ORIENTED_EDGE('',*,*,#133,.T.);
#54=ORIENTED_EDGE('',*,*,#134,.F.);
#55=ORIENTED_EDGE('',*,*,#135,.T.);
#56=ORIENTED_EDGE('',*,*,#136,.T.);
#57=ORIENTED_EDGE('',*,*,#137,.T.);
#58=ORIENTED_EDGE('',*,*,#138,.F.);
#59=ORIENTED_EDGE('',*,*,#139,.T.);
#60=ORIENTED_EDGE('',*,*,#140,.T.);
#61=ORIENTED_EDGE('',*,*,#141,.T.);
#62=ORIENTED_EDGE('',*,*,#142,.F.);
#63=ORIENTED_EDGE('',*,*,#143,.T.);
#64=ORIENTED_EDGE('',*,*,#144,.T.);
#65=ORIENTED_EDGE('',*,*,#145,.T.);
#66=ORIENTED_EDGE('',*,*,#138,.T.);
#67=ORIENTED_EDGE('',*,*,#146,.T.);
#68=ORIENTED_EDGE('',*,*,#140,.F.);
#69=ORIENTED_EDGE('',*,*,#147,.T.);
#70=ORIENTED_EDGE('',*,*,#128,.F.);
#71=ORIENTED_EDGE('',*,*,#148,.T.);
#72=ORIENTED_EDGE('',*,*,#134,.T.);
#73=ORIENTED_EDGE('',*,*,#149,.T.);
#74=ORIENTED_EDGE('',*,*,#150,.F.);
#75=ORIENTED_EDGE('',*,*,#151,.F.);
#76=ORIENTED_EDGE('',*,*,#152,.F.);
#77=ORIENTED_EDGE('',*,*,#153,.F.);
#78=ORIENTED_EDGE('',*,*,#154,.F.);
#79=ORIENTED_EDGE('',*,*,#155,.F.);
#80=ORIENTED_EDGE('',*,*,#142,.T.);
#81=ORIENTED_EDGE('',*,*,#156,.T.);
#82=ORIENTED_EDGE('',*,*,#136,.F.);
#83=ORIENTED_EDGE('',*,*,#157,.T.);
#84=ORIENTED_EDGE('',*,*,#132,.F.);
#85=ORIENTED_EDGE('',*,*,#158,.T.);
#86=ORIENTED_EDGE('',*,*,#130,.T.);
#87=ORIENTED_EDGE('',*,*,#159,.T.);
#88=ORIENTED_EDGE('',*,*,#160,.T.);
#89=ORIENTED_EDGE('',*,*,#155,.T.);
#90=ORIENTED_EDGE('',*,*,#160,.F.);
#91=ORIENTED_EDGE('',*,*,#161,.T.);
#92=ORIENTED_EDGE('',*,*,#154,.T.);
#93=ORIENTED_EDGE('',*,*,#145,.F.);
#94=ORIENTED_EDGE('',*,*,#162,.F.);
#95=ORIENTED_EDGE('',*,*,#162,.T.);
#96=ORIENTED_EDGE('',*,*,#161,.F.);
#97=ORIENTED_EDGE('',*,*,#163,.T.);
#98=ORIENTED_EDGE('',*,*,#153,.T.);
#99=ORIENTED_EDGE('',*,*,#163,.F.);
#100=ORIENTED_EDGE('',*,*,#164,.T.);
#101=ORIENTED_EDGE('',*,*,#152,.T.);
#102=ORIENTED_EDGE('',*,*,#164,.F.);
#103=ORIENTED_EDGE('',*,*,#165,.T.);
#104=ORIENTED_EDGE('',*,*,#151,.T.);
#105=ORIENTED_EDGE('',*,*,#165,.F.);
#106=ORIENTED_EDGE('',*,*,#166,.T.);
#107=ORIENTED_EDGE('',*,*,#150,.T.);
#108=ORIENTED_EDGE('',*,*,#144,.F.);
#109=ORIENTED_EDGE('',*,*,#167,.F.);
#110=ORIENTED_EDGE('',*,*,#167,.T.);
#111=ORIENTED_EDGE('',*,*,#166,.F.);
#112=ORIENTED_EDGE('',*,*,#146,.F.);
#113=ORIENTED_EDGE('',*,*,#137,.F.);
#114=ORIENTED_EDGE('',*,*,#156,.F.);
#115=ORIENTED_EDGE('',*,*,#141,.F.);
#116=ORIENTED_EDGE('',*,*,#149,.F.);
#117=ORIENTED_EDGE('',*,*,#133,.F.);
#118=ORIENTED_EDGE('',*,*,#157,.F.);
#119=ORIENTED_EDGE('',*,*,#139,.F.);
#120=ORIENTED_EDGE('',*,*,#147,.F.);
#121=ORIENTED_EDGE('',*,*,#143,.F.);
#122=ORIENTED_EDGE('',*,*,#159,.F.);
#123=ORIENTED_EDGE('',*,*,#129,.F.);
#124=ORIENTED_EDGE('',*,*,#148,.F.);
#125=ORIENTED_EDGE('',*,*,#131,.F.);
#126=ORIENTED_EDGE('',*,*,#158,.F.);
#127=ORIENTED_EDGE('',*,*,#135,.F.);
#128=EDGE_CURVE('',#168,#169,#200,.T.);
#129=EDGE_CURVE('',#169,#170,#201,.T.);
#130=EDGE_CURVE('',#171,#170,#202,.T.);
#131=EDGE_CURVE('',#171,#168,#203,.F.);
#132=EDGE_CURVE('',#172,#173,#204,.T.);
#133=EDGE_CURVE('',#173,#174,#205,.F.);
#134=EDGE_CURVE('',#175,#174,#206,.T.);
#135=EDGE_CURVE('',#175,#172,#207,.T.);
#136=EDGE_CURVE('',#176,#177,#208,.T.);
#137=EDGE_CURVE('',#177,#178,#209,.F.);
#138=EDGE_CURVE('',#179,#178,#210,.T.);
#139=EDGE_CURVE('',#179,#176,#211,.T.);
#140=EDGE_CURVE('',#180,#181,#212,.T.);
#141=EDGE_CURVE('',#181,#182,#213,.T.);
#142=EDGE_CURVE('',#183,#182,#214,.T.);
#143=EDGE_CURVE('',#183,#180,#215,.F.);
#144=EDGE_CURVE('',#184,#184,#24,.F.);
#145=EDGE_CURVE('',#185,#185,#25,.F.);
#146=EDGE_CURVE('',#178,#181,#26,.T.);
#147=EDGE_CURVE('',#180,#169,#27,.T.);
#148=EDGE_CURVE('',#168,#175,#28,.T.);
#149=EDGE_CURVE('',#174,#179,#29,.T.);
#150=EDGE_CURVE('',#186,#186,#30,.F.);
#151=EDGE_CURVE('',#187,#187,#31,.F.);
#152=EDGE_CURVE('',#188,#188,#32,.F.);
#153=EDGE_CURVE('',#189,#189,#33,.F.);
#154=EDGE_CURVE('',#190,#190,#34,.F.);
#155=EDGE_CURVE('',#191,#191,#35,.F.);
#156=EDGE_CURVE('',#182,#177,#36,.F.);
#157=EDGE_CURVE('',#176,#173,#37,.F.);
#158=EDGE_CURVE('',#172,#171,#38,.F.);
#159=EDGE_CURVE('',#170,#183,#39,.F.);
#160=EDGE_CURVE('',#192,#192,#40,.T.);
#161=EDGE_CURVE('',#193,#193,#41,.T.);
#162=EDGE_CURVE('',#194,#194,#42,.T.);
#163=EDGE_CURVE('',#195,#195,#43,.T.);
#164=EDGE_CURVE('',#196,#196,#44,.T.);
#165=EDGE_CURVE('',#197,#197,#45,.T.);
#166=EDGE_CURVE('',#198,#198,#46,.T.);
#167=EDGE_CURVE('',#199,#199,#47,.T.);
#168=VERTEX_POINT('',#530);
#169=VERTEX_POINT('',#531);
#170=VERTEX_POINT('',#533);
#171=VERTEX_POINT('',#535);
#172=VERTEX_POINT('',#539);
#173=VERTEX_POINT('',#540);
#174=VERTEX_POINT('',#542);
#175=VERTEX_POINT('',#544);
#176=VERTEX_POINT('',#548);
#177=VERTEX_POINT('',#549);
#178=VERTEX_POINT('',#551);
#179=VERTEX_POINT('',#553);
#180=VERTEX_POINT('',#557);
#181=VERTEX_POINT('',#558);
#182=VERTEX_POINT('',#560);
#183=VERTEX_POINT('',#562);
#184=VERTEX_POINT('',#566);
#185=VERTEX_POINT('',#568);
#186=VERTEX_POINT('',#575);
#187=VERTEX_POINT('',#577);
#188=VERTEX_POINT('',#579);
#189=VERTEX_POINT('',#581);
#190=VERTEX_POINT('',#583);
#191=VERTEX_POINT('',#585);
#192=VERTEX_POINT('',#592);
#193=VERTEX_POINT('',#596);
#194=VERTEX_POINT('',#599);
#195=VERTEX_POINT('',#603);
#196=VERTEX_POINT('',#607);
#197=VERTEX_POINT('',#611);
#198=VERTEX_POINT('',#615);
#199=VERTEX_POINT('',#618);
#200=LINE('',#529,#216);
#201=LINE('',#532,#217);
#202=LINE('',#534,#218);
#203=LINE('',#536,#219);
#204=LINE('',#538,#220);
#205=LINE('',#541,#221);
#206=LINE('',#543,#222);
#207=LINE('',#545,#223);
#208=LINE('',#547,#224);
#209=LINE('',#550,#225);
#210=LINE('',#552,#226);
#211=LINE('',#554,#227);
#212=LINE('',#556,#228);
#213=LINE('',#559,#229);
#214=LINE('',#561,#230);
#215=LINE('',#563,#231);
#216=VECTOR('',#417,1.);
#217=VECTOR('',#418,1.);
#218=VECTOR('',#419,1.);
#219=VECTOR('',#420,1.);
#220=VECTOR('',#423,1.);
#221=VECTOR('',#424,1.);
#222=VECTOR('',#425,1.);
#223=VECTOR('',#426,1.);
#224=VECTOR('',#429,1.);
#225=VECTOR('',#430,1.);
#226=VECTOR('',#431,1.);
#227=VECTOR('',#432,1.);
#228=VECTOR('',#435,1.);
#229=VECTOR('',#436,1.);
#230=VECTOR('',#437,1.);
#231=VECTOR('',#438,1.);
#232=EDGE_LOOP('',(#48,#49,#50,#51));
#233=EDGE_LOOP('',(#52,#53,#54,#55));
#234=EDGE_LOOP('',(#56,#57,#58,#59));
#235=EDGE_LOOP('',(#60,#61,#62,#63));
#236=EDGE_LOOP('',(#64));
#237=EDGE_LOOP('',(#65));
#238=EDGE_LOOP('',(#66,#67,#68,#69,#70,#71,#72,#73));
#239=EDGE_LOOP('',(#74));
#240=EDGE_LOOP('',(#75));
#241=EDGE_LOOP('',(#76));
#242=EDGE_LOOP('',(#77));
#243=EDGE_LOOP('',(#78));
#244=EDGE_LOOP('',(#79));
#245=EDGE_LOOP('',(#80,#81,#82,#83,#84,#85,#86,#87));
#246=EDGE_LOOP('',(#88));
#247=EDGE_LOOP('',(#89));
#248=EDGE_LOOP('',(#90));
#249=EDGE_LOOP('',(#91));
#250=EDGE_LOOP('',(#92));
#251=EDGE_LOOP('',(#93));
#252=EDGE_LOOP('',(#94));
#253=EDGE_LOOP('',(#95));
#254=EDGE_LOOP('',(#96));
#255=EDGE_LOOP('',(#97));
#256=EDGE_LOOP('',(#98));
#257=EDGE_LOOP('',(#99));
#258=EDGE_LOOP('',(#100));
#259=EDGE_LOOP('',(#101));
#260=EDGE_LOOP('',(#102));
#261=EDGE_LOOP('',(#103));
#262=EDGE_LOOP('',(#104));
#263=EDGE_LOOP('',(#105));
#264=EDGE_LOOP('',(#106));
#265=EDGE_LOOP('',(#107));
#266=EDGE_LOOP('',(#108));
#267=EDGE_LOOP('',(#109));
#268=EDGE_LOOP('',(#110));
#269=EDGE_LOOP('',(#111));
#270=EDGE_LOOP('',(#112,#113,#114,#115));
#271=EDGE_LOOP('',(#116,#117,#118,#119));
#272=EDGE_LOOP('',(#120,#121,#122,#123));
#273=EDGE_LOOP('',(#124,#125,#126,#127));
#274=FACE_BOUND('',#232,.T.);
#275=FACE_BOUND('',#233,.T.);
#276=FACE_BOUND('',#234,.T.);
#277=FACE_BOUND('',#235,.T.);
#278=FACE_BOUND('',#236,.T.);
#279=FACE_BOUND('',#237,.T.);
#280=FACE_BOUND('',#238,.T.);
#281=FACE_BOUND('',#239,.T.);
#282=FACE_BOUND('',#240,.T.);
#283=FACE_BOUND('',#241,.T.);
#284=FACE_BOUND('',#242,.T.);
#285=FACE_BOUND('',#243,.T.);
#286=FACE_BOUND('',#244,.T.);
#287=FACE_BOUND('',#245,.T.);
#288=FACE_BOUND('',#246,.T.);
#289=FACE_BOUND('',#247,.T.);
#290=FACE_BOUND('',#248,.T.);
#291=FACE_BOUND('',#249,.T.);
#292=FACE_BOUND('',#250,.T.);
#293=FACE_BOUND('',#251,.T.);
#294=FACE_BOUND('',#252,.T.);
#295=FACE_BOUND('',#253,.T.);
#296=FACE_BOUND('',#254,.T.);
#297=FACE_BOUND('',#255,.T.);
#298=FACE_BOUND('',#256,.T.);
#299=FACE_BOUND('',#257,.T.);
#300=FACE_BOUND('',#258,.T.);
#301=FACE_BOUND('',#259,.T.);
#302=FACE_BOUND('',#260,.T.);
#303=FACE_BOUND('',#261,.T.);
#304=FACE_BOUND('',#262,.T.);
#305=FACE_BOUND('',#263,.T.);
#306=FACE_BOUND('',#264,.T.);
#307=FACE_BOUND('',#265,.T.);
#308=FACE_BOUND('',#266,.T.);
#309=FACE_BOUND('',#267,.T.);
#310=FACE_BOUND('',#268,.T.);
#311=FACE_BOUND('',#269,.T.);
#312=FACE_BOUND('',#270,.T.);
#313=FACE_BOUND('',#271,.T.);
#314=FACE_BOUND('',#272,.T.);
#315=FACE_BOUND('',#273,.T.);
#316=PLANE('',#365);
#317=PLANE('',#366);
#318=PLANE('',#367);
#319=PLANE('',#368);
#320=PLANE('',#369);
#321=PLANE('',#376);
#322=PLANE('',#389);
#323=PLANE('',#394);
#324=PLANE('',#397);
#325=PLANE('',#400);
#326=PLANE('',#403);
#327=PLANE('',#408);
#328=ADVANCED_FACE('',(#274),#316,.T.);
#329=ADVANCED_FACE('',(#275),#317,.F.);
#330=ADVANCED_FACE('',(#276),#318,.F.);
#331=ADVANCED_FACE('',(#277),#319,.T.);
#332=ADVANCED_FACE('',(#278,#279,#280),#320,.T.);
#333=ADVANCED_FACE('',(#281,#282,#283,#284,#285,#286,#287),#321,.F.);
#334=ADVANCED_FACE('',(#288,#289),#12,.F.);
#335=ADVANCED_FACE('',(#290),#322,.F.);
#336=ADVANCED_FACE('',(#291,#292),#13,.F.);
#337=ADVANCED_FACE('',(#293,#294),#14,.F.);
#338=ADVANCED_FACE('',(#295,#296),#323,.F.);
#339=ADVANCED_FACE('',(#297,#298),#15,.F.);
#340=ADVANCED_FACE('',(#299),#324,.F.);
#341=ADVANCED_FACE('',(#300,#301),#16,.F.);
#342=ADVANCED_FACE('',(#302),#325,.F.);
#343=ADVANCED_FACE('',(#303,#304),#17,.F.);
#344=ADVANCED_FACE('',(#305),#326,.F.);
#345=ADVANCED_FACE('',(#306,#307),#18,.F.);
#346=ADVANCED_FACE('',(#308,#309),#19,.F.);
#347=ADVANCED_FACE('',(#310,#311),#327,.F.);
#348=ADVANCED_FACE('',(#312),#20,.T.);
#349=ADVANCED_FACE('',(#313),#21,.T.);
#350=ADVANCED_FACE('',(#314),#22,.T.);
#351=ADVANCED_FACE('',(#315),#23,.T.);
#352=CLOSED_SHELL('',(#328,#329,#330,#331,#332,#333,#334,#335,#336,#337,
#338,#339,#340,#341,#342,#343,#344,#345,#346,#347,#348,#349,#350,#351));
#353=STYLED_ITEM('',(#354),#361);
#354=PRESENTATION_STYLE_ASSIGNMENT((#355));
#355=SURFACE_STYLE_USAGE(.BOTH.,#356);
#356=SURFACE_SIDE_STYLE('',(#357));
#357=SURFACE_STYLE_FILL_AREA(#358);
#358=FILL_AREA_STYLE('',(#359));
#359=FILL_AREA_STYLE_COLOUR('',#360);
#360=COLOUR_RGB('',0.615686274509804,0.811764705882353,0.929411764705882);
#361=MANIFOLD_SOLID_BREP('Top plate',#352);
#362=SHAPE_DEFINITION_REPRESENTATION(#630,#363);
#363=SHAPE_REPRESENTATION('Top plate',(#364),#625);
#364=AXIS2_PLACEMENT_3D('',#527,#413,#414);
#365=AXIS2_PLACEMENT_3D('',#528,#415,#416);
#366=AXIS2_PLACEMENT_3D('',#537,#421,#422);
#367=AXIS2_PLACEMENT_3D('',#546,#427,#428);
#368=AXIS2_PLACEMENT_3D('',#555,#433,#434);
#369=AXIS2_PLACEMENT_3D('',#564,#439,#440);
#370=AXIS2_PLACEMENT_3D('',#565,#441,#442);
#371=AXIS2_PLACEMENT_3D('',#567,#443,#444);
#372=AXIS2_PLACEMENT_3D('',#569,#445,#446);
#373=AXIS2_PLACEMENT_3D('',#570,#447,#448);
#374=AXIS2_PLACEMENT_3D('',#571,#449,#450);
#375=AXIS2_PLACEMENT_3D('',#572,#451,#452);
#376=AXIS2_PLACEMENT_3D('',#573,#453,#454);
#377=AXIS2_PLACEMENT_3D('',#574,#455,#456);
#378=AXIS2_PLACEMENT_3D('',#576,#457,#458);
#379=AXIS2_PLACEMENT_3D('',#578,#459,#460);
#380=AXIS2_PLACEMENT_3D('',#580,#461,#462);
#381=AXIS2_PLACEMENT_3D('',#582,#463,#464);
#382=AXIS2_PLACEMENT_3D('',#584,#465,#466);
#383=AXIS2_PLACEMENT_3D('',#586,#467,#468);
#384=AXIS2_PLACEMENT_3D('',#587,#469,#470);
#385=AXIS2_PLACEMENT_3D('',#588,#471,#472);
#386=AXIS2_PLACEMENT_3D('',#589,#473,#474);
#387=AXIS2_PLACEMENT_3D('',#590,#475,#476);
#388=AXIS2_PLACEMENT_3D('',#591,#477,#478);
#389=AXIS2_PLACEMENT_3D('',#593,#479,#480);
#390=AXIS2_PLACEMENT_3D('',#594,#481,#482);
#391=AXIS2_PLACEMENT_3D('',#595,#483,#484);
#392=AXIS2_PLACEMENT_3D('',#597,#485,#486);
#393=AXIS2_PLACEMENT_3D('',#598,#487,#488);
#394=AXIS2_PLACEMENT_3D('',#600,#489,#490);
#395=AXIS2_PLACEMENT_3D('',#601,#491,#492);
#396=AXIS2_PLACEMENT_3D('',#602,#493,#494);
#397=AXIS2_PLACEMENT_3D('',#604,#495,#496);
#398=AXIS2_PLACEMENT_3D('',#605,#497,#498);
#399=AXIS2_PLACEMENT_3D('',#606,#499,#500);
#400=AXIS2_PLACEMENT_3D('',#608,#501,#502);
#401=AXIS2_PLACEMENT_3D('',#609,#503,#504);
#402=AXIS2_PLACEMENT_3D('',#610,#505,#506);
#403=AXIS2_PLACEMENT_3D('',#612,#507,#508);
#404=AXIS2_PLACEMENT_3D('',#613,#509,#510);
#405=AXIS2_PLACEMENT_3D('',#614,#511,#512);
#406=AXIS2_PLACEMENT_3D('',#616,#513,#514);
#407=AXIS2_PLACEMENT_3D('',#617,#515,#516);
#408=AXIS2_PLACEMENT_3D('',#619,#517,#518);
#409=AXIS2_PLACEMENT_3D('',#620,#519,#520);
#410=AXIS2_PLACEMENT_3D('',#621,#521,#522);
#411=AXIS2_PLACEMENT_3D('',#622,#523,#524);
#412=AXIS2_PLACEMENT_3D('',#623,#525,#526);
#413=DIRECTION('',(0.,0.,1.));
#414=DIRECTION('',(1.,0.,0.));
#415=DIRECTION('',(-1.,0.,0.));
#416=DIRECTION('',(0.,0.,1.));
#417=DIRECTION('',(0.,1.,0.));
#418=DIRECTION('',(0.,0.,-1.));
#419=DIRECTION('',(0.,1.,0.));
#420=DIRECTION('',(0.,0.,-1.));
#421=DIRECTION('',(0.,1.,0.));
#422=DIRECTION('',(0.,0.,1.));
#423=DIRECTION('',(1.,0.,0.));
#424=DIRECTION('',(0.,0.,-1.));
#425=DIRECTION('',(1.,0.,0.));
#426=DIRECTION('',(0.,0.,-1.));
#427=DIRECTION('',(-1.,0.,0.));
#428=DIRECTION('',(0.,0.,1.));
#429=DIRECTION('',(0.,1.,0.));
#430=DIRECTION('',(0.,0.,-1.));
#431=DIRECTION('',(0.,1.,0.));
#432=DIRECTION('',(0.,0.,-1.));
#433=DIRECTION('',(0.,1.,0.));
#434=DIRECTION('',(0.,0.,1.));
#435=DIRECTION('',(1.,0.,0.));
#436=DIRECTION('',(0.,0.,-1.));
#437=DIRECTION('',(1.,0.,0.));
#438=DIRECTION('',(0.,0.,-1.));
#439=DIRECTION('',(0.,0.,1.));
#440=DIRECTION('',(1.,0.,0.));
#441=DIRECTION('',(0.,0.,1.));
#442=DIRECTION('',(1.,0.,0.));
#443=DIRECTION('',(0.,0.,1.));
#444=DIRECTION('',(1.,0.,0.));
#445=DIRECTION('',(0.,0.,1.));
#446=DIRECTION('',(1.,0.,0.));
#447=DIRECTION('',(0.,0.,1.));
#448=DIRECTION('',(1.,0.,0.));
#449=DIRECTION('',(0.,0.,1.));
#450=DIRECTION('',(1.,0.,0.));
#451=DIRECTION('',(0.,0.,1.));
#452=DIRECTION('',(1.,0.,0.));
#453=DIRECTION('',(0.,0.,1.));
#454=DIRECTION('',(1.,0.,0.));
#455=DIRECTION('',(0.,0.,1.));
#456=DIRECTION('',(1.,0.,0.));
#457=DIRECTION('',(0.,0.,1.));
#458=DIRECTION('',(1.,0.,0.));
#459=DIRECTION('',(0.,0.,1.));
#460=DIRECTION('',(1.,0.,0.));
#461=DIRECTION('',(0.,0.,1.));
#462=DIRECTION('',(1.,0.,0.));
#463=DIRECTION('',(0.,0.,1.));
#464=DIRECTION('',(1.,0.,0.));
#465=DIRECTION('',(0.,0.,1.));
#466=DIRECTION('',(1.,0.,0.));
#467=DIRECTION('',(0.,0.,1.));
#468=DIRECTION('',(1.,0.,0.));
#469=DIRECTION('',(0.,0.,1.));
#470=DIRECTION('',(1.,0.,0.));
#471=DIRECTION('',(0.,0.,1.));
#472=DIRECTION('',(1.,0.,0.));
#473=DIRECTION('',(0.,0.,1.));
#474=DIRECTION('',(1.,0.,0.));
#475=DIRECTION('',(0.,0.,-1.));
#476=DIRECTION('',(-1.,0.,0.));
#477=DIRECTION('',(0.,0.,1.));
#478=DIRECTION('',(1.,0.,0.));
#479=DIRECTION('',(0.,0.,1.));
#480=DIRECTION('',(1.,0.,0.));
#481=DIRECTION('',(0.,0.,-1.));
#482=DIRECTION('',(-1.,0.,0.));
#483=DIRECTION('',(0.,0.,1.));
#484=DIRECTION('',(1.,-6.12323399573677E-17,0.));
#485=DIRECTION('',(0.,0.,-1.));
#486=DIRECTION('',(-1.,0.,0.));
#487=DIRECTION('',(0.,0.,1.));
#488=DIRECTION('',(1.,0.,0.));
#489=DIRECTION('',(0.,0.,1.));
#490=DIRECTION('',(1.,0.,0.));
#491=DIRECTION('',(0.,0.,-1.));
#492=DIRECTION('',(-1.,0.,0.));
#493=DIRECTION('',(0.,0.,1.));
#494=DIRECTION('',(1.,0.,0.));
#495=DIRECTION('',(0.,0.,1.));
#496=DIRECTION('',(1.,0.,0.));
#497=DIRECTION('',(0.,0.,-1.));
#498=DIRECTION('',(-1.,0.,0.));
#499=DIRECTION('',(0.,0.,1.));
#500=DIRECTION('',(1.,0.,0.));
#501=DIRECTION('',(0.,0.,1.));
#502=DIRECTION('',(1.,0.,0.));
#503=DIRECTION('',(0.,0.,-1.));
#504=DIRECTION('',(-1.,0.,0.));
#505=DIRECTION('',(0.,0.,1.));
#506=DIRECTION('',(1.,0.,0.));
#507=DIRECTION('',(0.,0.,1.));
#508=DIRECTION('',(1.,0.,0.));
#509=DIRECTION('',(0.,0.,-1.));
#510=DIRECTION('',(-1.,0.,0.));
#511=DIRECTION('',(0.,0.,1.));
#512=DIRECTION('',(1.,-6.12323399573677E-17,0.));
#513=DIRECTION('',(0.,0.,-1.));
#514=DIRECTION('',(-1.,0.,0.));
#515=DIRECTION('',(0.,0.,1.));
#516=DIRECTION('',(1.,0.,0.));
#517=DIRECTION('',(0.,0.,1.));
#518=DIRECTION('',(1.,0.,0.));
#519=DIRECTION('',(0.,0.,1.));
#520=DIRECTION('',(1.,0.,0.));
#521=DIRECTION('',(0.,0.,-1.));
#522=DIRECTION('',(-1.,0.,0.));
#523=DIRECTION('',(0.,0.,-1.));
#524=DIRECTION('',(-1.,0.,0.));
#525=DIRECTION('',(0.,0.,1.));
#526=DIRECTION('',(1.,0.,0.));
#527=CARTESIAN_POINT('',(0.,0.,0.));
#528=CARTESIAN_POINT('',(-0.04,0.,0.01));
#529=CARTESIAN_POINT('',(-0.04,0.,0.01));
#530=CARTESIAN_POINT('',(-0.04,-0.035,0.01));
#531=CARTESIAN_POINT('',(-0.04,0.035,0.01));
#532=CARTESIAN_POINT('',(-0.04,0.035,0.01));
#533=CARTESIAN_POINT('',(-0.04,0.035,0.));
#534=CARTESIAN_POINT('',(-0.04,0.,0.));
#535=CARTESIAN_POINT('',(-0.04,-0.035,0.));
#536=CARTESIAN_POINT('',(-0.04,-0.035,0.01));
#537=CARTESIAN_POINT('',(0.,-0.04,0.01));
#538=CARTESIAN_POINT('',(0.,-0.04,0.));
#539=CARTESIAN_POINT('',(-0.035,-0.04,0.));
#540=CARTESIAN_POINT('',(0.035,-0.04,0.));
#541=CARTESIAN_POINT('',(0.035,-0.04,0.01));
#542=CARTESIAN_POINT('',(0.035,-0.04,0.01));
#543=CARTESIAN_POINT('',(0.,-0.04,0.01));
#544=CARTESIAN_POINT('',(-0.035,-0.04,0.01));
#545=CARTESIAN_POINT('',(-0.035,-0.04,0.));
#546=CARTESIAN_POINT('',(0.04,0.,0.01));
#547=CARTESIAN_POINT('',(0.04,0.,0.));
#548=CARTESIAN_POINT('',(0.04,-0.035,0.));
#549=CARTESIAN_POINT('',(0.04,0.035,0.));
#550=CARTESIAN_POINT('',(0.04,0.035,0.01));
#551=CARTESIAN_POINT('',(0.04,0.035,0.01));
#552=CARTESIAN_POINT('',(0.04,0.,0.01));
#553=CARTESIAN_POINT('',(0.04,-0.035,0.01));
#554=CARTESIAN_POINT('',(0.04,-0.035,0.01));
#555=CARTESIAN_POINT('',(0.,0.04,0.01));
#556=CARTESIAN_POINT('',(0.,0.04,0.01));
#557=CARTESIAN_POINT('',(-0.035,0.04,0.01));
#558=CARTESIAN_POINT('',(0.035,0.04,0.01));
#559=CARTESIAN_POINT('',(0.035,0.04,0.));
#560=CARTESIAN_POINT('',(0.035,0.04,0.));
#561=CARTESIAN_POINT('',(0.,0.04,0.));
#562=CARTESIAN_POINT('',(-0.035,0.04,0.));
#563=CARTESIAN_POINT('',(-0.035,0.04,0.01));
#564=CARTESIAN_POINT('',(0.,0.,0.01));
#565=CARTESIAN_POINT('',(-0.015,1.99005104861445E-19,0.01));
#566=CARTESIAN_POINT('',(-0.01175,1.99005104861445E-19,0.01));
#567=CARTESIAN_POINT('',(0.025,1.99005104861445E-19,0.01));
#568=CARTESIAN_POINT('',(0.02825,1.99005104861445E-19,0.01));
#569=CARTESIAN_POINT('',(0.035,0.035,0.01));
#570=CARTESIAN_POINT('',(-0.035,0.035,0.01));
#571=CARTESIAN_POINT('',(-0.035,-0.035,0.01));
#572=CARTESIAN_POINT('',(0.035,-0.035,0.01));
#573=CARTESIAN_POINT('',(0.,0.,0.));
#574=CARTESIAN_POINT('',(-0.015,3.36777869765522E-19,0.));
#575=CARTESIAN_POINT('',(-0.0095,3.36777869765522E-19,0.));
#576=CARTESIAN_POINT('',(0.003,0.032,0.));
#577=CARTESIAN_POINT('',(0.0059,0.032,0.));
#578=CARTESIAN_POINT('',(0.003,-0.032,0.));
#579=CARTESIAN_POINT('',(0.0059,-0.032,0.));
#580=CARTESIAN_POINT('',(-0.023,0.032,0.));
#581=CARTESIAN_POINT('',(-0.0201,0.032,0.));
#582=CARTESIAN_POINT('',(0.025,3.36777869765522E-19,0.));
#583=CARTESIAN_POINT('',(0.0305,3.36777869765522E-19,0.));
#584=CARTESIAN_POINT('',(-0.023,-0.032,0.));
#585=CARTESIAN_POINT('',(-0.0201,-0.032,0.));
#586=CARTESIAN_POINT('',(0.035,0.035,0.));
#587=CARTESIAN_POINT('',(0.035,-0.035,0.));
#588=CARTESIAN_POINT('',(-0.035,-0.035,0.));
#589=CARTESIAN_POINT('',(-0.035,0.035,0.));
#590=CARTESIAN_POINT('',(-0.023,-0.032,0.008));
#591=CARTESIAN_POINT('',(-0.023,-0.032,0.008));
#592=CARTESIAN_POINT('',(-0.0201,-0.032,0.008));
#593=CARTESIAN_POINT('',(-0.023,-0.032,0.008));
#594=CARTESIAN_POINT('',(0.025,3.36777869765522E-19,0.0063));
#595=CARTESIAN_POINT('',(0.025,3.36777869765522E-19,0.0063));
#596=CARTESIAN_POINT('',(0.0305,-2.88889491658085E-34,0.0063));
#597=CARTESIAN_POINT('',(0.025,1.99005104861445E-19,0.011));
#598=CARTESIAN_POINT('',(0.025,1.99005104861445E-19,0.0063));
#599=CARTESIAN_POINT('',(0.02825,1.99005104861445E-19,0.0063));
#600=CARTESIAN_POINT('',(0.025,0.,0.0063));
#601=CARTESIAN_POINT('',(-0.023,0.032,0.008));
#602=CARTESIAN_POINT('',(-0.023,0.032,0.008));
#603=CARTESIAN_POINT('',(-0.0201,0.032,0.008));
#604=CARTESIAN_POINT('',(-0.023,0.032,0.008));
#605=CARTESIAN_POINT('',(0.003,-0.032,0.008));
#606=CARTESIAN_POINT('',(0.003,-0.032,0.008));
#607=CARTESIAN_POINT('',(0.0059,-0.032,0.008));
#608=CARTESIAN_POINT('',(0.003,-0.032,0.008));
#609=CARTESIAN_POINT('',(0.003,0.032,0.008));
#610=CARTESIAN_POINT('',(0.003,0.032,0.008));
#611=CARTESIAN_POINT('',(0.0059,0.032,0.008));
#612=CARTESIAN_POINT('',(0.003,0.032,0.008));
#613=CARTESIAN_POINT('',(-0.015,3.36777869765522E-19,0.0063));
#614=CARTESIAN_POINT('',(-0.015,3.36777869765522E-19,0.0063));
#615=CARTESIAN_POINT('',(-0.0095,-2.88889491658085E-34,0.0063));
#616=CARTESIAN_POINT('',(-0.015,1.99005104861445E-19,0.011));
#617=CARTESIAN_POINT('',(-0.015,1.99005104861445E-19,0.0063));
#618=CARTESIAN_POINT('',(-0.01175,1.99005104861445E-19,0.0063));
#619=CARTESIAN_POINT('',(-0.015,0.,0.0063));
#620=CARTESIAN_POINT('',(0.035,0.035,0.01));
#621=CARTESIAN_POINT('',(0.035,-0.035,0.01));
#622=CARTESIAN_POINT('',(-0.035,0.035,0.01));
#623=CARTESIAN_POINT('',(-0.035,-0.035,0.01));
#624=MECHANICAL_DESIGN_GEOMETRIC_PRESENTATION_REPRESENTATION('',(#353),
#625);
#625=(
GEOMETRIC_REPRESENTATION_CONTEXT(3)
GLOBAL_UNCERTAINTY_ASSIGNED_CONTEXT((#626))
GLOBAL_UNIT_ASSIGNED_CONTEXT((#629,#628,#627))
REPRESENTATION_CONTEXT('Top plate','TOP_LEVEL_ASSEMBLY_PART')
);
#626=UNCERTAINTY_MEASURE_WITH_UNIT(LENGTH_MEASURE(1.E-8),#629,
'DISTANCE_ACCURACY_VALUE','Maximum Tolerance applied to model');
#627=(
NAMED_UNIT(*)
SI_UNIT($,.STERADIAN.)
SOLID_ANGLE_UNIT()
);
#628=(
NAMED_UNIT(*)
PLANE_ANGLE_UNIT()
SI_UNIT($,.RADIAN.)
);
#629=(
LENGTH_UNIT()
NAMED_UNIT(*)
SI_UNIT($,.METRE.)
);
#630=PRODUCT_DEFINITION_SHAPE('','',#631);
#631=PRODUCT_DEFINITION('','',#633,#632);
#632=PRODUCT_DEFINITION_CONTEXT('',#639,'design');
#633=PRODUCT_DEFINITION_FORMATION_WITH_SPECIFIED_SOURCE('','',#635,
 .NOT_KNOWN.);
#634=PRODUCT_RELATED_PRODUCT_CATEGORY('','',(#635));
#635=PRODUCT('Top plate','Top plate','Top plate',(#637));
#636=PRODUCT_CATEGORY('','');
#637=PRODUCT_CONTEXT('',#639,'mechanical');
#638=APPLICATION_PROTOCOL_DEFINITION('international standard',
'ap242_managed_model_based_3d_engineering',2020,#639);
#639=APPLICATION_CONTEXT('managed model based 3d engineering');
ENDSEC;
END-ISO-10303-21;
